<?xml version="1.0" encoding="UTF-8"?>
<svg width="580px" height="426px" viewBox="0 0 580 426" version="1.1" xmlns="http://www.w3.org/2000/svg" xmlns:xlink="http://www.w3.org/1999/xlink">
    <!-- Generator: Sketch 55.2 (78181) - https://sketchapp.com -->
    <title>形状结合</title>
    <desc>Created with Sketch.</desc>
    <g id="页面1" stroke="none" stroke-width="1" fill="none" fill-rule="evenodd">
        <g id="getUpTItle3备份-3" transform="translate(-188.000000, -276.000000)" fill="#F1F1F1" fill-rule="nonzero">
            <path d="M216.92069,519.407449 C216.902278,519.430909 216.884094,519.453839 216.866205,519.476065 C217.370391,520.287376 217.855828,521.098583 218.4,521.9 C218.95,522.71 219.66,523.78 220.28,524.72 L218.88,525.13 L213.67,524.58 L213.58,525.38 C214.98,525.74 216.36,526.16 217.78,526.44 C218.06,526.45 218.45,526.04 218.79,525.84 L224.99,525.84 L224.99,525.49 L221.82,524.19 L222.59,522.89 L222.02,523.36 C220.871021,522.528703 219.82972,521.557942 218.92,520.47 C218.316665,519.560208 217.951786,518.980588 216.92069,519.407449 Z M216.789825,519.465365 C216.786556,519.466901 216.783281,519.468446 216.78,519.47 C216.782293,519.467411 216.784594,519.464805 216.786903,519.462183 L216.789825,519.465365 Z M247.30555,519.322018 L247.35,519.39 C246.96,519.72 246.62,520.27 246.16,520.39 C244.12,520.92 242.05,521.33 239.99,521.79 L239.16,522.79 C239.07,523.16 239.06,523.73 238.88,523.79 C237.991938,523.998708 237.150787,524.371799 236.4,524.89 L240.16,524.89 C241.72,523.47 243.72,523.99 244.72,523.41 L246.44,525.19 L244.44,525.36 L244.44,525.57 L246.69,525.87 L246.69,526.28 C245.064153,525.995273 243.419887,525.828173 241.77,525.78 C239.08,525.89 236.4,526.41 233.71,526.5 C232.409212,526.393454 231.126347,526.128149 229.89,525.71 L229.97,525.71 L227.63,526.14 C225.93,526.44 224.22,526.76 222.53,527.14 C222.494153,527.152802 222.465518,527.192485 222.440233,527.253508 C222.475711,527.121365 222.514081,527.04 222.57,527.04 C224.26,526.68 225.97,526.36 227.67,526.04 L230.02,525.61 L230.79,523.28 L228.34,523.07 C232.36,520.97 236.35,522.68 239.99,521.68 C242.05,521.22 244.16,520.81 246.16,520.28 C246.602442,520.193435 246.93387,519.681317 247.30555,519.322018 Z M222.236983,528.08896 C222.228426,528.122267 222.219451,528.155975 222.21,528.19 L212.77517,527.333135 L222.236983,528.08896 Z M213.96735,530.77 L250.18,530.77 C250.094261,532.44668 250.253562,534.250419 248.271623,534.901615 C250.221952,534.24212 250.064696,532.448174 250.15,530.78 L213.96,530.78 L213.96735,530.77 Z M245.606019,535.316932 C244.899686,535.667769 244.233735,536.09465 243.62,536.59 C243.616857,536.58781 243.613713,536.585624 243.610569,536.58344 C244.222661,536.091874 244.886362,535.668237 245.59,535.32 C245.595339,535.318975 245.600679,535.317953 245.606019,535.316932 Z M233.620043,535.33998 C233.633096,536.8397 236.58724,536.773798 235.34,538.49 C235.183022,538.703253 234.92867,538.845448 234.617475,538.947246 C234.915012,538.846181 235.158097,538.706359 235.31,538.5 C236.59,536.78 233.59,536.85 233.59,535.34 C233.600014,535.34 233.610028,535.339993 233.620043,535.33998 Z M231.95,536.640305 L229.36,540.12 L236.57,539.64 L235.85,542.05 L237.61,542.17 L233.4,547.17 L233.905794,547.636124 L233.88,547.65 L233.37,547.18 L237.58,542.18 L235.82,542.06 L236.54,539.65 L229.33,540.13 L231.95,536.61 L231.95,536.640305 Z M235.458382,546.807009 L235.49,546.79 L235.01,548.87 L238.21,548.87 L238.207283,548.88 L234.98,548.88 L235.458382,546.807009 Z M237.212764,552.549827 L238.97,552.44 C238.969102,552.44339 238.968204,552.446779 238.967304,552.450168 L237.21,552.56 L237.212764,552.549827 Z M237.520769,559.165601 C237.974233,559.597972 238.714419,559.869319 239.73,559.94 C240.26,559.94 240.8,559.94 241.51,559.94 L241.505398,559.95 L239.73,559.95 C238.708225,559.893024 237.967796,559.615299 237.520769,559.165601 Z M240.993988,561.071334 C241.592172,561.271992 242.08113,561.719712 242.59,561.59 C242.676699,561.5679 242.759353,561.531062 242.838992,561.48307 C242.756557,561.537098 242.673624,561.5777 242.59,561.6 C242.14,561.72 241.54,561.28 240.99,561.08 L240.993988,561.071334 Z M243.54529,560.796633 C243.663228,560.659194 243.781968,560.522678 243.906256,560.403581 L243.91,560.41 C243.787873,560.526575 243.666517,560.66087 243.54529,560.796633 Z M243.566563,559.811251 L243.56,559.8 L247.18,560.49 C247.17652,560.492684 247.17303,560.495353 247.169531,560.498005 L243.566563,559.811251 Z M238.670321,563.197408 L239.710517,563.944 L238.66,563.2 L238.670321,563.197408 Z M245.217407,572.01226 L245.66,571.94 L245.66,570.05 L248.66,569.19 L248.666515,569.212466 L245.71,570.06 L245.71,571.95 L245.22,572.03 L245.217407,572.01226 Z M248.986806,570.154503 C249.35656,569.7999 249.755716,569.477241 250.18,569.19 C250.337285,569.080585 250.569392,569.120816 250.80277,569.157191 C250.57963,569.126686 250.360542,569.098366 250.21,569.19 C249.778123,569.490918 249.373262,569.82886 249,570.2 L248.986806,570.154503 Z M251.779631,564.705114 L251.81,564.7 L251.66,566.78 L252.16,570.78 C251.39,571.07 250.42,571.35 249.52,571.78 C248.4,572.32 247.39,573.23 246.22,573.5 C246.068718,573.534911 245.906403,573.582194 245.738435,573.640552 C245.901208,573.580065 246.054017,573.532636 246.19,573.5 C247.19,573.26 248.37,572.32 249.49,571.78 C250.39,571.35 251.36,571.07 252.13,570.78 L251.63,566.78 L251.779631,564.705114 Z M243.289574,575.537562 C243.244475,575.665884 243.22,575.797006 243.22,575.93 C243.06,577.86 241.55,577.4 240.43,577.57 C239.31,577.74 237.96,577.81 236.73,577.92 L236.79,578.64 L237.6,578.91 L232.36,582.67 L232.36,582.648473 L237.57,578.91 L236.76,578.64 L236.7,577.92 C237.93,577.81 239.17,577.75 240.4,577.57 C241.63,577.39 243.03,577.86 243.19,575.93 C243.20038,575.797371 243.234967,575.666206 243.289574,575.537562 Z M232.33,581.122009 L228.03724,585.702275 L228,585.71 L232.33,581.09 L232.33,581.122009 Z M229.878609,585.326512 L229.91,585.32 C229.560636,586.964066 228.080349,587.852619 226.356362,587.847432 C228.065224,587.842284 229.52877,586.95688 229.878609,585.326512 Z M223.897355,587.268407 L220.21,589.72 C220.353013,589.873049 220.418597,590.138151 220.42065,590.457971 C220.413625,590.138609 220.34365,589.873731 220.2,589.72 L223.88,587.26 C223.885783,587.262813 223.891568,587.265615 223.897355,587.268407 Z M219.428382,593.020496 C219.327234,593.119374 219.22072,593.200803 219.11,593.26 C218.100441,593.799764 217.010953,594.519371 215.971364,595.159161 C215.967578,595.15944 215.96379,595.15972 215.96,595.16 C216.96,594.52 218.02,593.83 219.1,593.26 C219.215319,593.199137 219.325052,593.117866 219.428382,593.020496 Z M219.76152,595.972041 C219.989759,596.222429 220.195892,596.539766 220.38,596.94 C220.711456,597.352462 221.212472,597.591563 221.741293,597.590047 C221.21616,597.588541 220.719366,597.349861 220.39,596.94 C220.203995,596.539684 219.994281,596.222348 219.76152,595.972041 Z M221.751798,597.590045 C221.754531,597.590037 221.757265,597.590021 221.76,597.59 C223.261677,597.59 224.763355,597.527561 226.273457,597.478502 C224.760587,597.531312 223.256191,597.627785 221.751798,597.590045 Z M228.00933,599.088249 L228.011003,599.090091 L230.77,599.34 L230.76918,599.34902 L230.78,599.35 L230.72,600.01 L227.44,600.01 L227.44,600.3 L232.5,600.96 L229.03,602.11 L230.54,602.85 C229.54,604.34 230.28,606.85 227.68,607.28 C228.18,607.74 228.54,608.09 229.1,608.62 L221.73,609.26 L225.73,612.49 L223.97,614.68 L224.97,615.18 L223.37,616.49 L229.384983,617.767693 C230.374112,616.953798 230.782955,616.338848 231.37,616.11 C232.489877,615.527161 233.719848,615.186449 234.98,615.11 C235.015662,615.113318 235.051276,615.116921 235.08684,615.120808 C235.091226,615.120536 235.095613,615.120266 235.1,615.12 C236.385035,615.239558 237.607787,615.729354 238.62,616.53 C239.958383,617.768332 241.201879,619.105425 242.34,620.53 C242.23719,620.73247 242.175986,620.953486 242.16,621.18 C242.09,621.99 242.09,622.81 242.06,623.63 C241.388347,623.576268 240.689627,623.563136 239.997169,623.508796 C239.596241,623.480798 239.214708,623.442674 238.87,623.38 C237.99,623.22 237.15,622.72 236.27,622.63 C233.23,622.31 230.82,620.46 228.09,619.4 C227.073811,619.01288 225.98269,618.784989 224.76225,618.435317 L224.917815,620.185413 L226.9,619.94 C226.889482,619.949683 226.879067,619.959258 226.868754,619.968726 L227.02,619.95 C226.39,620.51 226.13,620.7 225.93,620.95 C225.598528,621.347766 225.293964,621.763471 224.98233,622.180125 C225.399537,622.042812 225.831778,621.955442 226.27,621.92 C226.301207,621.92397 226.332399,621.928037 226.363577,621.932201 C226.372382,621.931446 226.38119,621.930713 226.39,621.93 C227.16091,622.028075 227.923151,622.185203 228.67,622.4 L227.1,623.04 L227.92,624.04 C226.18,625.4 223.32,624.52 222.2,627.2 L224.78,627.52 L223.57,629.42 L229.57,629.42 L229.458742,629.47 L229.48,629.47 L226.268101,630.95317 C228.753831,631.94544 230.927146,632.936797 233.13,633.81 C233.64114,633.971619 234.167046,634.08216 234.7,634.14 L234.91,632.31 L238.61,637.03 L240.67,636.79 L240.633936,636.904202 L240.67,636.9 L240.460511,637.563382 L242.71,638.55 L242.625359,638.622877 L242.71,638.66 L240.199738,640.821345 L242.28,641.9 L242.161922,641.948774 L242.28,642.01 L233.743884,645.536004 L233.83,645.78 L237,644.96 C236.942045,645.0118 236.88399,645.063484 236.825836,645.115052 L237,645.07 C235.136167,646.735876 233.168913,648.282292 231.11,649.7 C228.77,651.47 227.94,651.23 226.77,647.94 L226.33,649.05 L224.57,647.51 L224.174713,647.886902 L224.79,649.25 L224.745203,649.260758 L224.79,649.36 L222.357208,649.944253 C222.577342,650.122074 222.782326,650.317992 222.97,650.53 C223.46,651.35 223.97,652.17 224.39,653 C225.67,655.32 226.48,655.43 228.82,654 C229.74,653.45 231.39,652.8 231.95,653.21 C234.12,654.83 235.81,653.35 237.55,652.69 C239.96,651.77 242.21,650.38 244.64,649.53 C245.73,649.14 247.14,649.74 248.34,649.53 C250.93,649.13 253.47,648.53 256.03,647.98 L256.03,648.15 L256.03,648.32 L247.13429,652.304641 L247.35,652.9 L249.6,652.9 L249.71,653.4 L249.632229,653.429224 L249.65,653.51 L246.512303,654.689073 L246.71,655.39 C249.9,654.51 253.06,653.18 256.31,652.86 C259.56,652.54 263.07,653.19 266.46,653.43 L266.61,654.29 L266.534219,654.309525 L266.55,654.4 L256.754867,656.923721 C257.575079,656.99783 258.595582,657.114128 259.6,657.15 C262.36,657.27 265.13,657.15 267.87,657.46 C271.56,657.83 275.19,658.25 278.31,655.6 L278.460816,655.6 C279.610758,655.004244 280.788488,654.463626 281.99,653.98 C282.821783,653.774637 283.673488,653.660629 284.53,653.64 L284.638644,653.556529 L284.58,653.53 L286.136206,652.334378 L285.77,651.84 L283.59,652.12 C283.632336,652.079266 283.674886,652.039276 283.71764,652.000028 L283.64,652.01 C285.48,650.23 287.75,649.87 289.49,650.8 C291.49,651.88 292.49,648.25 294.8,650.38 C295.89,651.38 298.52,650.8 300.26,650.92 L300.187082,651.028465 C300.194739,651.028963 300.202378,651.029474 300.21,651.03 L298.683958,653.299987 C301.554863,653.296959 304.226379,652.751941 306.52,653.45 C309.06,654.21 311.16,653.31 313.52,653.1 C315.88,652.89 318.45,653.1 320.91,653.1 L320.97,653.53 C320.949745,653.541092 320.929513,653.552207 320.909304,653.563345 L320.92,653.64 C320.522192,653.857847 320.133355,654.084666 319.744991,654.311959 L319.88,654.96 C320.73,654.84 321.59,654.68 322.45,654.61 C324,654.49 325.45,653.37 327.19,654.78 C328.01,655.43 329.87,654.78 331.37,654.7 C331.787107,655.941619 333.276873,655.30138 333.667035,654.568205 C333.688292,654.516885 333.710174,654.467129 333.732657,654.41889 C334.526626,652.50844 336.197993,652.808764 337.49,652.72 C340.66,652.49 343.85,652.64 347.04,652.64 L346.959733,652.749996 C346.969822,652.749998 346.979911,652.75 346.99,652.75 L346.509159,653.40893 L347.32,655.97 C347.301564,655.998642 347.281351,656.024162 347.259496,656.046823 L347.27,656.08 C346.809929,656.794753 345.229436,655.565641 344.680024,656.479413 C344.593779,656.673695 344.542963,656.942568 344.54,657.31 C347.364965,658.192902 350.446388,657.498819 352.62,655.49 C354.603187,653.602827 357.497609,653.030176 360.05,654.02 L359.94823,654.110155 C359.965502,654.116699 359.982759,654.123314 360,654.13 L358.232554,655.678998 L358.56,656.1 L362.79,654.1 L364.47,654.83 L364.427705,654.847276 L364.48,654.87 L357.872714,657.568891 L358.03,658.05 L367.24,655.44 L367.57,656.26 L367.565007,656.262744 L367.58,656.3 L364.771034,657.843935 L365.5,659.02 C367.31,658.31 369.02,657.02 370.65,657.12 C373.99,657.31 377.3,658.23 380.81,658.88 L380.747164,658.906468 C380.771433,658.910991 380.795712,658.915502 380.82,658.92 L377.8668,660.203179 C380.943543,660.405811 383.812123,658.387585 386.7,660.47 C386.67948,660.487907 386.6585,660.505176 386.637094,660.521794 C386.65473,660.534374 386.672365,660.547108 386.69,660.56 C386.427092,660.789426 386.088914,660.914018 385.74,660.91 C385.511704,660.946527 385.291748,661.02475 384.866908,661.137052 C388.931294,663.08863 392.870258,661.667127 396.748254,661.460404 L395.75,661.4 C395.760841,661.369463 395.77245,661.339978 395.784792,661.3115 L395.76,661.31 C396.293039,659.808606 398.680823,660.848606 398.905638,659.227307 C398.921333,659.042294 398.911125,658.825355 398.87,658.57 C398.877813,658.57 398.885626,658.569999 398.893439,658.569998 C398.889396,658.540541 398.884919,658.510545 398.88,658.48 C401.68,658.48 404.51,658.4 407.33,658.48 C409.41,658.56 411.5,658.82 412.65,661.18 L412.598715,661.186968 C412.612608,661.214352 412.62637,661.242029 412.64,661.27 L410.829243,661.516027 L410.98,662.19 C411.98,661.97 413.15,662.05 413.77,661.48 C415.06,660.3 414.95,660.16 416.07,661.36 L418.72,660.68 L418.83,661.03 L418.798017,661.050054 L418.82,661.12 L417.03065,662.246994 C417.394123,662.641621 417.893432,662.886059 418.43,662.93 C418.942384,661.623047 420.292578,660.846166 421.68,661.06 C423.44,661.16 425.15,662.59 426.88,662.6 C430.182412,662.544631 433.475583,662.233702 436.73,661.67 C438.73,661.37 440.73,660.67 442.9,660.16 C442.892573,660.188022 442.885248,660.215667 442.878016,660.24297 C442.895331,660.238639 442.912659,660.234315 442.93,660.23 C442.715459,661.039404 442.586507,661.573022 442.320571,662.526395 C445.670726,662.2874 448.725413,662.029149 451.79,661.86 C453.23,661.78 455.09,661.32 456.05,662.01 C458.54,663.8 460.81,662.62 463.23,662.33 C466.339315,661.960081 469.488613,661.850048 472.677893,661.630145 L471.97,660.09 C471.970818,660.090202 471.971635,660.090404 471.972452,660.090606 L471.94,660.02 C472.872377,660.250281 473.765432,660.617613 474.59,661.11 C476.48,662.74 476.46,662.92 478.48,662.3 C479.9,661.86 481.14,660.74 482.56,660.44 C485.164579,659.95112 487.795868,659.6172 490.44,659.44 C491.059219,659.41308 491.660166,659.653459 492.09,660.1 C493.7,662.21 495.35,660.91 496.74,660.04 C498.258369,658.89566 500.235157,658.553166 502.05,659.12 L501.923535,659.14349 C501.975813,659.158248 502.027973,659.17375 502.08,659.19 L497.57357,660.027047 L499.15,660.51 L499.085693,660.551108 L499.18,660.58 L495.41,662.99 L492.52,662.62 L492.466292,663.19289 L493.56,663.28 C493.543999,663.301219 493.528046,663.322487 493.512136,663.343798 L493.59,663.35 C493.13,663.96 492.71,664.61 492.21,665.19 C491.835184,665.647873 491.389557,666.042861 490.89,666.36 C490.321267,666.689546 489.619749,666.925861 489.007694,667.210101 C489.62135,667.168822 490.237591,667.178788 490.85,667.24 C490.857404,667.273118 490.865077,667.305888 490.873014,667.338315 C490.878676,667.338873 490.884338,667.339434 490.89,667.34 C490.942103,667.57304 491.007487,667.78885 491.084775,667.989564 C491.847583,669.826743 493.639156,670.365051 495.32,671.37 C497.551112,672.829723 500.085009,673.722428 502.703632,673.995654 C503.866517,674.107334 505.045006,674.096909 506.22,673.96 C508.83,673.67 511.46,673.46 514.08,673.39 C515.34,673.35 516.64,674 517.87,673.84 C520.99,673.45 524.07,672.78 527.18,672.24 C527.47,672.19 527.8,672.37 528.09,672.32 C530.04,671.93 532.19,671.9 533.88,671.02 C537.72,669.01 541.31,666.55 545.05,664.35 C545.81307,664.020651 546.616925,663.795302 547.44,663.68 L547.62,664.32 L547.603627,664.327342 L547.61,664.35 L545.418226,665.332858 L547.19,666.14 C547.181645,666.147712 547.173287,666.155423 547.164925,666.163132 L547.18,666.17 C546.538517,666.762138 545.887294,667.344537 544.899523,668.263229 L549.23,667.27 C549.99,667.91 550.87,669.05 551.23,668.91 C552.97,668.19 555.14,668.41 556.39,666.46 C557.33,664.94 558.6,663.67 560.48,665.46 C560.71,665.67 561.26,665.59 561.65,665.59 L574.43,666.11 C574.54,666.11 574.65,666.27 574.76,666.36 L574.73163,666.374352 C574.73775,666.37976 574.743875,666.384989 574.75,666.39 L573.931682,666.803973 L575.71,667.95 L575.653448,667.95 L575.7,667.98 L563.84,667.98 L563.84,668.34 L575.66,669.18 L575.78,669.8 C575.691336,669.857956 575.601456,669.910918 575.510423,669.959294 C573.550784,671.068959 570.93552,669.891501 568.476243,670.86898 C570.159835,670.763617 571.848864,670.780668 573.53,670.92 C575.037715,671.287232 576.515311,671.76862 577.95,672.36 C575.94,674.91 580.43,674.59 580.14,676 C580.918951,676.356255 581.755577,676.569645 582.61,676.63 C582.873829,676.580207 583.127513,676.495694 583.365123,676.380191 C583.774138,676.169935 584.132873,675.866636 584.41,675.49 C584.71,675.05 584.47,674.24 584.47,673.6 L584.530292,673.609276 C584.530099,673.596116 584.53,673.583023 584.53,673.57 L584.92,673.63 L584.92,678.63 L588.16,677.1 C588.536181,677.510379 591.580334,677.467569 592.805449,676.821585 C592.983264,676.719026 593.116794,676.602032 593.19,676.47 L592.37,674.98 L592.89,674.59 L592.897625,674.599281 L592.95,674.56 L594.7,676.69 L601.194247,674.104235 L601.12,673.7 L590.32,674.34 C590.34821,674.305302 590.375927,674.270715 590.40317,674.236257 L590.34,674.24 C591.29,673.01 591.72,671.92 592.4,671.73 C593.08,671.54 594.01,672.26 595.23,672.73 C596.27,672.35 598.13,671 599.68,671.3 C601.115396,671.521766 602.579128,671.481107 604,671.18 C606.86,670.75 609.72,670.25 612.6,670.05 C615.82,669.82 619.06,669.82 622.29,669.82 C625.9,669.82 629.5,669.82 633.1,669.82 L633.19,670.66 L633.160415,670.670537 L633.17,670.76 L631.797578,671.248808 C634.56337,674.01555 639.631144,673.12633 640.99,670.24 C642.96,670.1 644.65,670.3 646.11,669.81 C649.02,668.83 651.86,667.83 654.86,669.22 C655.30963,669.390632 655.798002,669.432195 656.27,669.34 C659.07,668.9 661.86,668.36 664.67,667.96 C669.820621,667.231327 674.981205,666.592327 680.131863,665.913708 L680.08,665.3 L666.64,665.3 L666.852739,665.2 L666.68,665.2 L669.948711,663.66351 L669.82,663.39 L664.713873,664.545545 L664.81,664.89 L666.64,665.14 L666.64,665.58 L666.6,665.58315 L666.6,665.68 L662.79,665.98 L662.864468,665.877286 L662.83,665.88 L663.3432,665.172139 C662.444922,664.907342 661.58619,664.523213 660.79,664.03 C659.5,662.96 658.41,662.77 657.1,663.82 C657.178397,663.732365 657.259575,663.647555 657.343372,663.565681 C657.276141,663.613777 657.20837,663.6652 657.14,663.72 C657.722205,663.069187 658.457825,662.574191 659.28,662.28 C659.791945,662.115554 660.323025,662.018077 660.86,661.99 C663.55,661.64 665.78,659.59 668.86,659.99 C671.11,660.29 673.47,659.7 675.79,659.51 L675.298975,658.547205 C675.279315,658.551474 675.259656,658.555739 675.24,658.56 L667.14,659.5 L666.94,658.57 L666.988422,658.559162 L666.98,658.52 L675.239577,656.671286 L675.18,656.45 L670.53,657.06 C670.658435,656.500388 670.660629,655.915528 670.822255,655.768677 C670.84661,655.728694 670.875302,655.701566 670.91,655.69 C673.78,654.64 676.59,653.27 679.59,652.81 C682.125848,652.504347 684.640567,652.043482 687.12,651.43 C692.6,649.89 698.42,649.46 704.12,648.57 L704.3,649.38 L704.253657,649.401457 L704.26,649.43 L698.602797,652.049256 L713.28,649.35 C713.238906,649.403873 713.197478,649.4572 713.15572,649.509992 C709.4668,654.26423 703.099087,654.700846 698.335481,658.12089 L707.28,655.04 C707.369109,655.673664 707.419006,656.121072 707.497633,656.663695 L708.93,654.14 L708.938657,654.145224 L708.97,654.09 L709.55,654.44 C709.32,655.01 709.08,655.58 708.84,656.15 C710.40663,654.455281 711.118938,656.420552 712.01,656.899572 L712.01,656.27 C712.023327,656.276147 712.03666,656.282278 712.05,656.288393 L712.05,656.22 C713.329875,656.810325 714.671463,657.256403 716.05,657.55 C718.39,657.78 720.74,657.53 723.05,657.72 C724.098326,657.804172 724.982703,657.841502 725.559754,657.146471 C725.719218,656.939646 725.853722,656.672692 725.96,656.33 L724.16,655.77 L724.27,655.54 L724.286087,655.54 L724.31,655.49 L730.5,655.49 L728.91,656.63 C730.761401,658.99623 733.220531,658.049358 735.831274,657.865312 C735.424324,655.781334 735.027162,653.775526 734.63,651.75 C731.45,652.56 731.13,652.42 729.1,650.75 C727.794725,649.689293 726.403233,648.739332 724.94,647.91 C723.892877,647.425926 722.805394,647.034433 721.69,646.74 L721.766216,646.691642 C721.764144,646.691094 721.762072,646.690547 721.76,646.69 L723.130429,645.820486 C720.763862,645.941207 718.487536,646.387079 716.66,644.22 L713.44,645.22 L714.34,643.02 L714.307177,642.998118 C710.491602,644.04422 706.682965,645.382789 702.56,644.58 C701.54,644.38 700.41,644.73 699.21,644.3 L707.1,642.5 L705.1,641.22 L712.92,641.82 L718.92,637.82 C719.02,638 719.25,638.45 719.46,638.88 L723.1,638.371183 L723.1,638.19 L720.23,638.03 C720.287088,638.004881 720.343598,637.97986 720.399544,637.954992 L720.31,637.95 C722.29,637.04 723.6,636.31 724.83,638.04 C725.201156,638.433994 725.709533,638.670282 726.25,638.7 C728.47,638.86 730.69,638.9 732.9,639.03 C733.756425,639.081905 734.437734,638.875177 734.894986,638.448972 C735.265057,638.056967 735.465505,637.502168 735.47,636.81 C735.47,636.13 734.62,635.44 734.2,634.81 L734.284407,634.736484 C734.282933,634.734322 734.281464,634.732161 734.28,634.73 L737.291166,632.107372 L736.09,631.75 C736.122266,631.724014 736.154945,631.699153 736.188015,631.67536 L736.17,631.67 C737.472388,630.592161 739.516997,631.458617 740.774852,630.131719 C740.887884,629.999076 740.993361,629.846323 741.09,629.67 L736.09,629.95 L736.09,629.76 L736.17,629.7416 L736.17,629.68 L741.904619,628.361038 L734.66,627.62 L734.769792,627.543047 L734.74,627.54 L736.880583,626.039681 L735.47,625.29 L735.649716,625.262996 L735.55,625.21 L737.4,624.932021 L737.4,624.78 L733.97,624.32 L734.09,623.62 L734.154386,623.63108 L734.17,623.54 L736.273445,623.901988 L736.43,623.49 L728.8,620.65 C728.8,620.46 728.88,620.26 728.91,620.07 L728.986189,620.07 C728.988639,620.043175 728.99,620.01649 728.99,619.99 L739.39,619.99 C740.06489,620.93672 741.363599,620.029554 743.047293,620.167471 L737.75,617.95 L737.948834,617.932303 L737.8,617.87 L739.649086,617.705422 L739.6,617.37 L733.75,618.044237 L733.75,618.19 L735.49,618.35 L735.49,618.83 L735.44,618.823671 L735.44,618.91 L727.54,617.91 L726.66,618.97 L726.34,618.71 L727.06,617.11 L727.074,617.11 L727.11,617.03 L733.65,617.03 L733.65,616.62 L730.77,616.31 L730.83,615.87 L730.868418,615.874932 L730.88,615.79 L738.630798,616.784968 L738.7,616.24 L736.7,615.58 L736.76,615.24 L736.796748,615.235093 L736.81,615.16 L739.964591,614.738735 L739.9,614.44 L738.73,614.29 L739.29,612.08 L739.328582,612.04506 L739.34,612 L742.14111,609.46333 L741.93,608.83 L738.21,608.83 L738.21,608.27 L738.21,608.19 L741.68,607.942849 L741.68,607.39 L737.38,606.58 L737.484463,606.552143 L737.42,606.54 L741.10081,605.558451 L736.24,601.97 C734.967467,602.393928 733.6475,602.659264 732.31,602.76 C728.31,602.69 724.31,602.22 720.31,602.17 C717,602.17 714.95,600.89 714.55,597.79 L714.597889,597.809336 C714.595192,597.789634 714.592562,597.769855 714.59,597.75 L717.24,598.82 L716.99,599.42 L716.971349,599.408762 L716.95,599.46 L715.499974,598.586267 C716.75876,600.438034 719.191295,600.899069 722.476643,599.795149 L718.23,599.47 L718.23,599.07 L718.27,599.07 L718.27,599.03 L729.554926,599.03 C727.554416,595.867956 724.501619,598.005246 722.5,596.87 L722.43,596.14 L722.47306,596.131911 L722.47,596.1 L732.81,594.19 L731.23,593.11 L731.280606,593.077713 L731.27,593.07 C731.924365,592.65621 732.652812,592.186859 733.401875,591.724324 L733.44,591.7 L733.441297,591.7 C733.442986,591.698958 733.444675,591.697917 733.446365,591.696875 C731.112893,591.573842 728.692583,593.116842 726.42,591.4 C727,589.94 725.18,587.65 722.84,586.1 L722.925088,586.1 C722.91008,586.08997 722.895051,586.07997 722.88,586.07 L727.942763,586.07 L719.15,583.82 L719.26,582.96 L719.317995,582.965672 L719.32,582.95 L730.20402,584.019412 C730.502324,583.233742 730.761207,582.536693 731.03,581.8 C730.680539,581.686045 730.404303,581.462434 730.164228,581.1813 C729.715995,580.668031 729.399693,579.959053 728.980085,579.376334 C728.418021,578.608955 727.669477,578.064847 726.207783,578.484853 L727.05,579.01 L726.93,579.35 L726.924099,579.348387 L726.92,579.36 L720.307984,577.553113 L720.27,577.59 L720.27,577.542733 L720.26,577.54 L717.39,577.54 L717.27,577.84 L720.54,578.55 L720.61,579.46 L717.72,579.72 L713.72,582.03 L713.36,581.4 C713.91,581.16 714.6,581.05 714.91,580.63 C715.388649,580.078444 715.62636,579.358109 715.57,578.63 C715.28,577.47 715.01,576.68 716.57,576.31 C717.778144,575.945528 718.960746,575.501217 720.11,574.98 C720.169209,575.789193 720.228419,576.656815 720.287628,577.534817 L720.318068,577.543136 C720.32249,577.538903 720.326912,577.534671 720.331333,577.530438 L725.81,572.21 L725.825246,572.214276 C725.830164,572.209517 725.835082,572.204759 725.84,572.2 L726.618281,572.418298 L725.01,569.44 L727.33,568.35 C727.3302,568.351271 727.330399,568.352542 727.330599,568.353813 L727.36,568.34 C727.469623,569.037602 727.579246,569.725273 727.777948,570.887994 C728.456319,570.35173 729.05619,569.722954 729.56,569.02 C729.69,568.73 729.06,568.02 728.42,566.97 L722.76,564.08 C724.91,561.82 726.85,559.71 728.87,557.68 C730.485201,556.262709 732.027197,554.764102 733.49,553.19 C734.529304,551.685945 735.394826,550.068963 736.07,548.37 C736.71,547.03 737.21,545.62 737.86,544.05 L736.32,544.13 C737.64,538.47 736.2,533.55 733.32,528.97 L733.382049,529.010377 C733.371386,528.99358 733.360703,528.976788 733.35,528.96 L735.404785,530.297085 C735.117358,528.482831 734.898619,527.061475 734.67,525.65 C734.677598,525.643182 734.685335,525.636284 734.693205,525.629311 L731.21,520.15 L731.176957,520.15 L731.21,520.19 L721.11,520.19 L721.89,520.43 C721.868493,520.436762 721.846983,520.443476 721.825471,520.450145 L721.89,520.47 C716.26,522.24 710.44,520.81 704.64,521.18 C704.64,521.165311 704.639793,521.150622 704.639396,521.135934 C704.601713,520.882831 704.546808,520.629772 704.540581,520.384995 C704.540386,520.38333 704.540192,520.381665 704.54,520.38 L708.54,519.68 L708.54,519.64 L708.54,519.27 L706.40558,518.88368 C707.801015,518.396316 708.666206,518.016301 709.57,517.81 C710.49,517.6 711.72,517.48 712.81,517.32 C712.81,517.303786 712.80954,517.287573 712.808678,517.271354 C712.780385,517.089577 712.720359,516.907682 712.711186,516.71816 C712.710784,516.715441 712.710389,516.712722 712.71,516.71 L708.01,516.71 L709.2,514.99 L705.66,514.64 C705.699863,514.628222 705.739526,514.616504 705.778989,514.604844 L705.73,514.6 C708.894687,513.664979 710.794824,513.103575 712.012897,512.417515 C713.78075,511.392477 714.072857,510.071962 714.79,506.83 L712.39,507.2 C712.39,503.73 713.73,500.95 715.39,497.69 L715.410495,497.747256 C715.426964,497.714888 715.443466,497.68247 715.46,497.65 L716.09,499.41 L716.209518,499.487335 C716.853012,497.091752 717.496506,494.705577 718.14,492.29 C714.82,491.88 715.23,489.02 714.39,487.92 L720.39,477.58 L719.651773,477.038633 L717.95,478.46 L717.93387,478.455006 L717.88,478.5 L714.65,477.5 C714.674458,477.486943 714.698958,477.47397 714.723499,477.461083 L714.72,477.46 C715.647956,476.964597 716.63618,476.591492 717.66,476.35 C719.79693,476.251976 722.183689,475.808036 723.115449,478.851685 C723.338373,477.211901 725.874603,476.435503 724.21,474.57 L730.81,468.78 C730.31,467.23 729.66,465.21 728.96,463.01 L729.045613,463.019065 C729.040411,463.00272 729.035207,462.986365 729.03,462.97 L730.644971,463.140997 C730.111452,461.400649 729.655541,459.835787 729.18,458.32 L729.255804,458.298897 C729.253869,458.292597 729.251935,458.286298 729.25,458.28 L731.890938,457.544794 C731.468641,457.208499 731.027622,456.8964 730.57,456.61 C730.331829,456.503363 730.084044,456.419652 729.83,456.36 C729.83,455.52 729.98,455.01 729.83,454.7 C729.49,454.11 728.62,453.7 728.57,453.11 C728.32,450.29 726.86,448.88 724.08,448.76 L724.110335,448.733537 C721.786252,449.515447 719.697506,448.238474 717.5,447.97 L717.81,447.34 L717.37,446.92 C717.05,446.97 716.62,446.81 716.43,446.97 C716.157218,447.210834 715.923088,447.289816 715.711876,447.274326 C715.128024,447.276831 714.722442,446.531279 714.179614,446.406895 C714.109035,446.396237 714.036051,446.396328 713.96,446.41 C713.960358,446.404267 713.96072,446.398534 713.961085,446.392802 C713.944208,446.394523 713.927182,446.396911 713.91,446.4 C713.91,445.76 714,445.13 714.03,444.59 L711.840529,443.470719 L710.56,444.92 L710.52668,444.891122 L710.51,444.91 L710.21,444.65 L710.58,443.95 L707.803205,442.734535 L705.82,443.27 C705.8195,443.262291 705.819001,443.254592 705.818503,443.246904 L705.77,443.26 C705.701937,442.209878 705.643327,441.358298 705.594173,440.51221 C705.607332,440.51291 705.620465,440.513643 705.633569,440.51441 C705.634137,440.515378 705.634705,440.516347 705.635273,440.517315 C705.635281,440.517428 705.635288,440.51754 705.635296,440.517652 C705.44496,440.505248 705.248851,440.500182 705.049112,440.499752 C704.383854,440.501164 703.677426,440.551665 703.010105,440.55001 C702.084597,440.552247 701.234016,440.461213 700.67,440.01 C699.473634,439.076835 698.348833,438.691138 697.128642,438.685957 C696.32392,438.68936 695.4769,438.856568 694.54,439.14 C694.539562,439.135114 694.539125,439.130231 694.538687,439.125352 C694.522485,439.130199 694.506256,439.135082 694.49,439.14 C694.430521,438.475818 694.371042,437.880425 694.311563,437.217437 L692.36,437.92 C692.361825,437.913348 692.363639,437.906695 692.365443,437.900041 L692.31,437.92 C692.62,436.79 692.62,435.63 693.05,435.44 C694.778982,434.684812 694.780056,433.455684 694.387551,431.477901 L691.07,434.44 L691.028987,434.431976 L691.02,434.44 L687.34,433.72 L688.91,432.43 L686.18,431.3 L688.67,429.79 L688.47,429.26 L685.52,429.26 L685.47,429.26 L687.88,426.37 L686.31,426.1 C686.88,425.36 687.31,424.34 688.04,423.98 C689.054781,423.686695 690.103847,423.528662 691.16,423.51 C691.42,423.51 691.81,423.12 691.83,422.89 C691.97,420.89 693.83,420.78 695.08,420.11 C696.15,419.51 697.53,419.44 699.23,419.03 L699.21099,419.046501 C699.233934,419.041062 699.256938,419.035562 699.28,419.03 L694.28,423.37 C694.409948,423.42271 694.546692,423.450327 694.683453,423.453325 C694.873252,423.449164 695.061488,423.397632 695.23,423.3 C696.577968,422.567771 697.75977,421.440899 699.357263,421.273206 C699.693408,421.235832 700.04903,421.240583 700.43,421.3 C700.830745,421.361971 701.374863,421.37103 701.884656,421.329997 C702.591166,421.27108 703.215021,421.113774 703.29,420.86 C703.59169,419.901056 704.105251,419.731545 704.661815,419.736981 C704.993701,419.733613 705.34285,419.799694 705.672923,419.802987 C705.813402,419.801528 705.950046,419.787327 706.08,419.75 C706.893391,419.606391 707.683797,419.354134 708.43,419 C710.3,417.85 712.11,416.57 713.93,415.33 C715.24,414.44 716.54,413.52 718.31,412.33 L715.98,411.92 L721.2,408.43 L720.78,408 L723.3,407.15 L723.310342,407.163377 L723.35,407.15 L724.252741,408.317676 L724.66,408.04 L724.03,406.7 L719.62,405.89 L722.22,403.06 L717.46,403.06 L717.41,403.06 L717.25,402.71 L722.77,400.85 L718.51,398.12 L723.43,398.12 L723.48,398.12 C722.750216,397.065868 722.00235,396.723492 721.218409,396.730992 C720.07016,396.719905 718.845037,397.478956 717.486164,397.86431 C718.033067,396.471996 718.441757,395.405401 718.91,394.18 C718.886894,394.198485 718.863786,394.216866 718.840673,394.23514 C718.84712,394.216795 718.853562,394.198415 718.86,394.18 C717.708209,395.101433 716.549069,395.765625 715.213272,395.773817 C714.35935,395.768585 713.432857,395.495026 712.39,394.85 L717.84,393.71 L717.84,390.014583 L719.23,391.81 C719.23013,391.788484 719.230143,391.766974 719.230042,391.74547 L719.28,391.81 C719.285436,390.90745 719.087181,390.015302 718.7,389.2 C718.687611,389.184071 718.646088,389.17472 718.586134,389.170894 C718.364563,389.139557 717.639241,389.22613 717.58,389.37 C717.283179,390.791981 716.166796,391.160921 715.227454,391.167534 C714.825319,391.164723 714.459454,391.097212 714.21,391.02 C713.90992,390.927118 713.690949,390.880179 713.525935,390.872969 C712.946277,390.81652 712.981907,391.19189 712.66,391.82 C711.738309,393.469827 710.995016,395.374509 708.746692,395.388652 C708.57033,395.387553 708.385012,395.375002 708.19,395.35 C708.10228,395.337469 708.010791,395.357601 707.916636,395.397802 C707.621477,395.513305 707.297587,395.809146 706.98,395.96 C706.226926,396.320514 705.114428,396.392205 704.001158,396.256059 C702.351455,396.049649 700.711902,395.388816 700.251966,394.523712 L701.46,394.61 L701.460472,394.606462 L701.51,394.61 L701.61,393.86 L698.53,393.45 C699.289458,392.524815 700.114952,391.655874 701,390.85 C701.844776,390.28425 702.766109,389.842289 703.735984,389.537516 C703.856048,389.597981 704.135788,390.008796 704.33,390.24 C704.337683,390.229116 704.345284,390.218098 704.352812,390.206961 C704.362038,390.218382 704.371109,390.229415 704.38,390.24 C704.62,389.89 704.78,389.42 705.11,389.24 C705.848422,388.867114 706.60838,388.538532 707.385836,388.255994 L707.65,388.98 L706.36,389.53 L708.82,389.53 L711.28,389.53 C711.33,388.93 711.39,388.3 711.44,387.67 L711.38948,387.676545 C711.389654,387.674363 711.389827,387.672182 711.39,387.67 L708.982,387.981968 C710.024249,387.284882 711.132189,386.691399 712.29,386.21 C713.9,385.76 714.23,384.93 714.23,383.28 C714.21,382.2 715.12,381.07 715.68,380 C715.98,379.42 716.6,378.97 716.76,378.37 C717.31,376.18 717.73,373.96 718.19,371.79 L718.137634,371.801942 C718.138422,371.797961 718.139211,371.79398 718.14,371.79 L712.274684,373.12753 C713.007611,371.179692 713.90128,370.35946 715.074394,370.34803 C715.567673,370.352795 716.109992,370.497861 716.71,370.76 C717.270771,370.978758 717.866327,371.088558 718.464924,371.085414 C718.666575,371.086473 718.868672,371.074719 719.07,371.05 C719.41,371.05 720.02,370.19 719.94,370.05 C718.26,367.24 720.6,365.76 721.75,363.76 C722.48,362.5 724.36,361.24 723.08,359.44 C722.081287,358.255369 720.976721,357.164193 719.78,356.18 L720.335933,355.33147 L722.71,356.75 L722.724484,356.728779 L722.76,356.75 L723.19,356.12 L720.12,353.74 L720.09298,353.757815 L720.07,353.74 L715.548029,356.72152 L714.509251,355.847781 C714.512402,355.866124 714.515562,355.884445 714.518737,355.902729 L714.513101,355.903101 L714.457946,355.847946 C714.458354,355.847869 714.458763,355.847791 714.459171,355.847714 L714.524152,355.90237 L714.56,355.9 C714.436032,355.156189 714.333349,354.344264 713.843641,354.378063 C713.586058,354.364435 713.214191,354.601857 712.657841,355.245901 C712.342891,354.103091 712.066067,353.055411 711.76,351.92 L711.711226,351.924547 C711.710817,351.923032 711.710409,351.921516 711.71,351.92 L703.929375,352.645397 L703.82,351.84 C704.544409,351.644138 705.278796,351.487246 706.02,351.37 C708.13,351.14 710.29,351.15 712.36,350.73 C712.615087,350.673813 712.869164,350.61346 713.122372,350.549634 C714.746058,350.159188 716.334391,349.606949 717.924839,349.076504 C718.292979,348.958065 718.661211,348.841805 719.03,348.73 C716.48,346.59 713.06,347.09 709.54,346.91 L716.05,343.68 C717.91,342.74 720.45,342.87 721.34,340.5 L717.04,338.74 L722.84,335.11 C722.69,334.53 722.52,333.89 722.38,333.38 L718.71,333.12 L723.79,328.78 L721.54,328.37 L722.21,328.19 L721.446252,325.328362 L723.98,323.24 C723.928279,323.24 723.876838,323.242472 723.825688,323.247187 L723.98,323.12 C722.245269,323.149738 720.824978,325.901351 720.157451,322.822655 L720.64,321.79 C720.76,321.59 720.88,321.4 720.99,321.19 C720.99,321.14 720.99,321.05 720.99,320.9 L720.95,320.910178 L720.95,320.78 L719.329015,321.19244 C719.804861,319.017201 720.738943,318.625445 724.107614,319.130585 C723.935076,319.982116 723.762538,320.815652 723.59,321.64 L723.646989,321.678801 C723.641326,321.705877 723.635663,321.732944 723.63,321.76 L724.1,322.08 C724.92,320.48 725.75,318.88 726.69,317.08 L726.607515,317.043145 C726.621652,317.015484 726.635813,316.987769 726.65,316.96 L722.98188,315.321053 L727.53,308.4 L727.372347,308.459038 L727.49,308.28 L722.754039,310.164414 C722.928151,309.067524 723.221885,307.992977 723.63,306.96 C724.63,305.11 725.8,303.37 726.9,301.59 L726.889326,301.571091 C726.88955,301.570727 726.889775,301.570364 726.89,301.57 L726.54,300.95 C725.556989,301.102535 724.598602,301.385007 723.69,301.79 C721.08,303.4 718.59,305.15 716.08,306.89 C715.195796,307.655707 714.271133,308.373406 713.31,309.04 C712.23486,309.410091 711.120418,309.654093 709.989062,309.767126 L713.47,305.59 L713.423479,305.613825 L713.46,305.57 L709.34,307.68 C707.846225,305.150541 705.172307,306.419359 702.641632,305.442333 L707.67,303.66 L707.67,303.41 L707.66,303.410793 L707.66,303.39 L699.84,304.01 C699.941675,304.509977 699.985297,305.020019 699.97,305.53 C699.301814,305.707217 698.619073,305.824086 697.93,305.879204 L697.93,305.48 L698.69,305.17 C698.680601,305.165779 698.6712,305.161587 698.661798,305.157424 L698.68,305.15 C695.357968,303.653589 691.807036,305.839493 688.702333,303.913927 L691.33,302.62 C691.318885,302.61715 691.307773,302.614314 691.296665,302.611491 L691.32,302.6 C687.42,301.58 683.94,302.27 680.25,304.45 L680.310125,304.440472 C680.293421,304.450284 680.276713,304.460126 680.26,304.47 L683.90105,303.893003 C683.728613,304.325449 683.361147,304.651185 682.91,304.77 C679.84,305.4 677.13,306.91 673.51,305.72 C670.72,304.81 667.09,305.77 664.02,306.58 C658.92,307.93 653.92,309.82 648.92,311.48 L649.13,312.13 L649.133297,312.129254 L649.14,312.15 L652.93503,311.291125 L653.08,311.9 L648.32,313.28 L648.333232,313.299063 L648.33,313.3 L648.907416,314.131871 C648.286061,314.58168 647.616036,314.960107 646.91,315.26 C646.27,315.47 645.08,315.67 644.91,315.4 C643.76,313.5 642.27,314.75 640.96,314.85 C639.651857,314.949858 638.303827,315.099575 636.965698,315.229447 L636.88,314.82 L642.58,313.52 L642.58,312.67 L642.57,312.667904 L642.57,312.65 L639.05,311.912096 L639.05,311.56 L644.39,310.89 L644.39,310.23 L644.38,310.228922 L644.38,310.21 L636.27279,309.335693 C638.23958,308.669474 638.90172,307.24531 639.14,305.21 L639.12801,305.206892 C639.128677,305.201266 639.12934,305.195636 639.13,305.19 L624.987493,301.54 L631.91,301.54 L631.91,301 L631.84,301 L631.84,300.98 L616.35,300.98 L616.35,301.86 L616.38,301.865621 L616.38,301.88 L620.732999,302.695573 C618.282709,302.988972 616.147304,303.687842 614.16,303.35 C611,302.79 608.88,304.2 606.72,306.09 L606.780585,306.083268 C606.770391,306.092168 606.760196,306.101079 606.75,306.11 L609.785024,305.772775 L609.93,306.43 C607.56,306.43 606.08,309.67 603.21,307.82 L602.84,308.58 L602.83263,308.585573 C602.09668,308.296168 601.122635,307.604185 600.69,307.85 C598.74,308.97 596.96,310.37 595.11,311.67 L595.098106,311.676148 L595.04,311.65 L588.27,315.13 L588.357049,315.160512 L588.3,315.19 L590.14195,315.835632 L584.21,318.07 L584.310561,318.103422 L584.24,318.13 L587.555062,319.231771 C581.813276,322.536543 575.603915,321.202476 569.663173,321.884368 C570.056287,321.609313 570.512118,321.435692 570.99,321.38 C573.21,321.17 575.44,321.02 577.67,320.82 C579.9,320.62 580.08,320.36 579.82,317.96 L579.796719,317.962521 C579.794516,317.941844 579.792275,317.921004 579.79,317.9 L572.325122,318.708362 L572.13,317.9 L576.13,316.62 L576.13,315.99 C576.12,315.993581 576.11,315.997158 576.1,316.000731 L576.1,315.93 C572.225572,317.317263 568.360963,318.154669 564.545092,316.272531 C566.244561,316.10507 567.952868,316.044105 569.66,316.09 C569.978952,316.175785 570.282593,316.310737 570.56,316.49 C569.82,313.6 572.33,315.15 573.56,313.67 C573.528501,313.6745 573.497066,313.678972 573.465695,313.683418 C573.487491,313.659809 573.508933,313.635349 573.53,313.61 C570.59,314.03 568.21,314.21 565.92,314.75 C562.76152,315.490269 562.740023,315.61678 561.951503,314.129493 L563.58,313.58 C563.537244,313.570319 563.494463,313.561391 563.451657,313.553183 L563.55,313.52 C560.9,312.92 558.15,315.21 555.73,312.78 C551.347578,313.146026 549.490036,312.924871 546.401048,311.574385 L550.88,310.59 L550.814972,310.537699 L550.85,310.53 L547.167922,307.568544 L547.86,306.74 C547.827446,306.746693 547.795244,306.753276 547.763383,306.759752 L547.83,306.68 C546.76,306.9 546.07,307 545.4,307.18 C543.35,307.73 541.33,308.43 539.26,308.83 C536.17,309.43 533.02,309.74 529.93,310.36 C528.95,310.56 528.13,311.44 527.18,311.85 C526.538507,312.142227 525.832113,312.262831 525.13,312.2 C523.83,312.02 522.57,311.46 521.28,311.38 C519.959007,311.312972 518.63527,311.437599 517.35,311.75 C516.36,311.96 515.51,312.89 514.51,312.96 C512.86,313.08 511.17,312.61 509.51,312.7 C507.44,312.82 505.33,313.57 503.33,313.48 C497.6,313.21 491.88,312.66 486.15,312.21 C484.79,312.11 483.33,311.95 482.07,311.86 C480.81,311.77 479.55,311.73 477.95,311.66 L478.086371,311.724624 C478.051128,311.723102 478.015673,311.721561 477.98,311.72 L480.611493,312.967014 L480.39,313.41 L470.39,310.41 L470.14,311.41 L470.183531,311.415874 L470.17,311.47 L474.284193,312.025168 L474.21,312.73 L461.79,311.66 L462.38,310.4 C458.929965,309.188064 456.794631,309.314307 455.267881,310.854879 C455.039124,311.073208 454.823923,311.321567 454.62,311.6 L456.62,311.96 L456.456011,312.761724 C453.837499,312.421622 451.228508,311.908869 448.59,311.77 C446.77,311.67 444.78,312.02 443.08,311.86 C441.03,311.67 438.27,312.87 436.6,309.96 C436.588093,310.009613 436.575901,310.057629 436.563431,310.104091 C436.548874,310.079696 436.534397,310.055 436.52,310.03 C436.378889,310.617964 436.197829,310.982374 435.987287,311.194447 C435.121221,311.886921 433.809247,310.305129 432.71,310.96 L432.749775,310.969237 C432.709594,310.986752 432.669659,311.006936 432.63,311.03 L434.711608,311.513407 C433.758533,312.066921 432.761273,312.540743 431.73,312.93 C430.62,311.34 429.46,309.96 427.35,309.77 C427.35,309.77 427.35,309.48 427.35,309.32 C427.32341,309.355778 427.296743,309.390801 427.27,309.425082 L427.27,309.39 C427.276346,309.374134 427.282522,309.358409 427.288527,309.342824 L427.32,309.35 C427.92,307.9 427.05,307.63 425.92,307.75 C422.81,308.05 419.71,308.41 416.61,308.75 C416.579309,308.757673 416.525069,308.81833 416.501486,308.882283 C416.481449,308.913979 416.459243,308.949211 416.44,308.98 L419.5,309.83 L419.371119,310.373141 L410.34,308.78 L410.374465,308.8349 L410.29,308.82 L411.409964,310.604014 L408.02,311.96 L408.028791,311.976484 L407.97,312 L408.51139,313.015105 C406.939342,313.131172 405.539813,313.172434 404.15,313.34 C400.43,313.79 396.62,313.95 393.02,314.88 C387.93,316.19 382.99,317.87 377.68,316.14 C377.089735,316.054663 376.490265,316.054663 375.9,316.14 L375.9,315.10001 C378.673451,315.101069 381.456607,315.189462 384.22,315.1 C387,315.01 389.97,314.67 392.84,314.44 L392.83643,314.404302 C392.854287,314.402865 392.872143,314.401431 392.89,314.4 L392.81,313.6 L382.87,314.33 L382.87,312.27 C382.853019,312.288904 382.836356,312.307715 382.82,312.32642 L382.82,312.31 C382.465126,312.720541 382.250664,313.082664 382.062066,313.268342 C381.996198,313.327145 381.934084,313.36 381.87,313.36 C380.45,313.36 378.92,313.36 377.45,313.36 L377.45,312.771034 L378.85,312.52 C378.838668,312.511627 378.827293,312.503321 378.815877,312.495084 L378.9,312.48 C378.265559,312.01121 377.498827,311.755633 376.71,311.75 C375.61,311.78 374.49,312.19 373.41,312.11 C370.94,311.92 368.48,311.28 366.02,311.34 C365.551969,311.347736 365.097404,311.570919 364.641258,311.857925 C364.398128,312.008644 364.154705,312.179828 363.908709,312.347975 C363.422289,312.676372 362.925236,312.985995 362.4,313.1 C359.05,313.84 355.63,314.29 351.89,314.91 L352.036453,314.917538 C351.971068,314.928308 351.905583,314.939128 351.84,314.95 L355.817212,315.154709 C354.171716,315.520164 352.478938,315.62664 350.8,315.47 C349.54,315.34 348.34,314.57 347.09,314.52 C344.47,314.41 341.83,314.58 339.21,314.67 C338.38,314.7 337.56,314.82 336.56,314.91 L337.13,313.48 C334.96,313.71 332.67,313.44 330.9,314.27 C328.63,315.33 326.45,314.98 324.2,315.14 C323.43,315.19 322.71,316.01 321.97,316.48 C321.07,316.74 319.99,316.35 318.91,316.35 C317.780465,316.474094 316.658725,316.661051 315.55,316.91 C314.079888,317.153926 312.589549,317.254398 311.1,317.21 C309.763993,316.95202 308.45739,316.560039 307.2,316.04 C307.207476,316.063375 307.214787,316.086571 307.221936,316.10959 C307.197939,316.099773 307.173961,316.08991 307.15,316.08 C307.624683,317.564219 307.437832,318.315387 306.82553,318.659238 C306.527767,318.810023 306.137805,318.87 305.68,318.87 C303.81,318.92 301.93,318.25 300.08,319.02 C300.01155,319.049336 299.866605,318.887432 299.654514,318.739993 L300.88,318.17 L300.856908,318.163996 L300.93,318.13 L298.93,317.61 L298.872045,317.020786 L302.26,315.77 L302.256123,315.74989 L302.31,315.73 L302.15,314.9 L297.15,315.53 L297.152157,315.563428 L297.1,315.57 L297.378731,319.890331 L295.11,320.79 L295.114924,320.80822 L295.06,320.83 L295.16,321.2 L296.45,321.2 L296.508467,321.5508 L292.38,322.94 C292.38,322.41 292.22,321.99 292.38,321.81 C293.16,320.89 294.04,320.03 294.83,319.11 C294.863635,319.069638 294.689111,318.852795 294.635188,318.800404 L294.631015,318.811448 C294.640471,318.826062 294.656281,318.848375 294.68,318.88 L296.01,315.36 L293.21,315.63 L293.231528,315.659246 L293.12,315.67 L294.144472,317.100394 L290.14,318.07 L290.198559,318.114029 L290.05,318.15 L291.251594,319.053454 L278.93,318.12 L278.93,317.7859 L281.84,317.33 L281.76802,317.275377 L281.93,317.25 L279.02,315.19 L280.32,311.49 L274.2361,311.49 L276.82,309.51 C276.51,309.13 276.28,308.63 275.89,308.41 C272.27,306.41 268.61,304.41 265.01,302.41 C264.851395,302.320896 264.693583,302.238858 264.536007,302.163999 C262.875617,301.362197 261.321209,301.354879 259.14,302.22 L259.211605,302.227511 C259.201083,302.231653 259.190549,302.235816 259.18,302.24 L262.00153,302.535965 L262.32,305.86 L260.82,306.53 C261.12,306.9 261.36,307.14 261.71,307.64 C262.06,308.14 262.61,308.8 262.6,309.14 C262.59,309.48 261.76,309.79 261.21,310.19 L261.255082,310.206317 C261.253385,310.207542 261.251691,310.20877 261.25,310.21 L263.86,311.19 L261.88648,313.755576 C259.351238,310.565776 260.68829,305.998965 256.99,303.76 L257.03328,303.834483 C257.009076,303.819551 256.98465,303.804723 256.96,303.79 L258.165782,305.902531 L255.98,304.42 L255.954031,304.449864 L255.91,304.42 L255.71,304.65 L259.2,308.45 C258.56957,308.738631 258.092986,308.834313 257.724967,308.798232 C256.703146,308.647785 256.560618,307.420803 256.21,306.61 L256.144511,306.620478 C256.143011,306.616978 256.141507,306.613485 256.14,306.61 L253.14,307.09 L258.762101,310.749297 L257.89,312.41 L253.09,308.91 L252.72,309.44 L252.804147,309.51379 L252.73,309.62 L254.455077,311.13276 L252.8,311 L252.74,311.3 L252.8025,311.3275 L252.77,311.49 L257.72668,313.670939 L257.68,314.27 L253.8,314.6 L253.7,313.96 L252.76,315.63 L249.01,315.45 L249.01,316.29 L249.04,316.291545 L249.04,316.48 L254.09,316.74 L254.09,316.12 C254.924199,316.377217 255.800623,316.468936 256.67,316.39 C259.25,315.58 261.67,314.44 264.3,313.63 C266.46,312.96 268.72,312.63 270.9,312.04 C271.544175,311.745936 272.143459,311.362125 272.68,310.9 L274.882067,313.214036 L266.76,314.74 L267.257558,314.842156 L266.79,314.93 L270.847142,315.762988 L270.79,315.95 L268.24,316.14 C267.38,316.92 266.8,317.84 266.02,318.06 C264.50888,318.39765 262.974585,318.62161 261.43,318.73 L261.25,320.68 C261.264956,320.688338 261.280057,320.696424 261.295298,320.704268 L261.28,320.87 L259.89,320.87 C259.856645,320.880173 259.823078,320.890035 259.789317,320.899608 L259.91,320.69 C258.078612,321.259973 255.513846,320.852108 255.283034,323.398464 C255.251254,323.625693 255.239408,323.878434 255.25,324.16 L258.346269,324.16 L256.26,325.32 L256.377264,325.423679 L256.24,325.5 L257.81934,326.896368 L257.6,327.24 L252.84,324.9 L252.859965,325.099646 L252.82,325.08 L253.02,327.08 L254.53,326.85 L254.599735,327.469869 C252.467631,327.463758 250.337117,327.587362 248.22,327.84 C246.73,328.08 244.22,328.87 244.22,329.52 C244.217666,329.562017 244.214876,329.603623 244.21164,329.644825 C244.20606,329.663267 244.202157,329.681663 244.2,329.7 C244.19617,329.768949 244.191113,329.836789 244.184871,329.903558 C243.87312,332.31893 241.968233,333.295185 240.57,334.76 L240.57,334.71 L240.777219,334.71 C240.700255,334.785477 240.62441,334.862047 240.55,334.94 L237.81,334.94 L238.58,333.45 L233.29,335.99 C235.7,338.29 236.09,338.31 237.68,336.3 C238.055464,336.675464 238.378768,337.182034 238.746246,337.594754 C239.325097,338.171913 240.033306,338.453031 241.22,337.66 L241.22,337.94823 C241.275574,337.914654 241.332228,337.878607 241.39,337.84 L241.39,339.44 L241.47,339.37 C241.399889,339.352584 241.329777,339.334529 241.259666,339.315929 L243.22,342.08 C240.88,342.46 238.62,343.78 236.08,342.08 L240.57,341.65 L240.57,341.07 L234.2,340.19 L234.26,339.59 C235.10593,339.762833 235.966621,339.853256 236.83,339.86 C238.210555,339.748063 239.617214,339.470801 241.009394,339.247364 C239.59293,338.847924 238.176465,338.27 236.76,338.27 C234.95,338.27 232.66,337.63 231.66,340.2 C231.54,340.52 230.87,340.69 230.43,340.83 C230.22,340.9 229.76,340.62 229.71,340.7 C229.03,341.7 228.41,342.7 227.71,343.7 L225.26,342.46 C225.689441,342.943572 226.079813,343.497469 226.5096,343.97036 C227.235957,344.713401 228.095568,345.185905 229.44,344.71 C230.185053,344.305186 230.982652,344.005666 231.81,343.82 C235.42,343.77 239.04,343.82 242.65,343.82 L242.65,343.989942 C242.703335,343.98998 242.756669,343.99 242.81,343.99 L242.81,344.81 C240.19,344.92 237.56,345.06 234.93,345.14 C231.99,345.23 229.05,345.26 226.11,345.35 C225.851623,345.372569 225.608462,345.481815 225.42,345.66 C224.5999,346.37397 223.807726,347.115866 222.504595,348.307814 L230.98,349.36 L231.080877,348.589666 L225.44,348.11 C225.473786,348.089251 225.507652,348.06865 225.541597,348.048197 L225.21,348.02 C226.993426,346.924756 228.998867,346.241472 231.08,346.02 C232.349319,345.945731 233.846566,345.552365 235.057748,346.089483 C235.734373,346.320935 236.335967,346.804227 236.78,347.74 C236.78,347.754916 236.786592,347.767634 236.797909,347.77861 C236.822848,347.78 236.844579,347.78 236.86,347.78 L237.35,346.39 L238,346.39 C238.007208,346.419977 238.01431,346.449977 238.021306,346.48 L238.23,346.48 C238.424855,347.290348 238.542051,348.117419 238.58,348.95 C238.530288,350.969557 238.98642,352.139605 240.130758,352.647303 C240.802936,352.877777 241.682855,352.915256 242.8,352.79 C244.375519,352.704941 245.954481,352.704941 247.53,352.79 L247.53,352.868188 C247.606674,352.871924 247.683341,352.875861 247.76,352.88 L247.76,353.68 C242.9,354.24 237.97,352.68 233.13,353.68 L233.13,354.326469 L248.96,355.46 L248.96,355.533531 L249.19,355.55 L249.19,356.31 L240.08,355.84 L240.08,356.215522 L248.85,357.57 L248.843319,357.623446 L249.08,357.66 L249.01,358.22 L244.113282,358.22 C244.264126,358.483488 244.328954,358.67 244.41,358.67 C245.87,358.86 247.34,359.03 248.76,359.19 L248.592194,359.261071 C248.648204,359.267397 248.704141,359.273706 248.76,359.28 L246.21,360.27 L246.54,360.86 C241.55,360.69 240.28,361.18 239.21,363.61 L246.04,364.03 C245.9,365.84 246.72,366.32 248.91,366.09 L248.586008,366.197997 C248.684231,366.190325 248.785546,366.18097 248.89,366.17 L245.183885,367.405372 L246.69,368.22 L246.648149,368.288181 L246.67,368.3 L244.311975,372.141615 L245.69,372.87 C245.679818,372.894242 245.669073,372.91879 245.657858,372.943582 L245.67,372.95 C245.520176,373.306724 245.248191,373.729618 245.159089,374.026214 C245.143054,374.109691 245.147059,374.179491 245.18,374.23 C245.501658,374.624494 245.886961,374.96248 246.32,375.23 C246.91,374.41 247.12,373.79 247.53,373.61 C250.12,372.49 252.89,373.39 253.83,375.36 C253.817397,375.374296 253.804812,375.388564 253.792244,375.402804 C253.798233,375.415159 253.804152,375.427557 253.81,375.44 C253.14,376.2 252.49,376.96 251.94,377.59 C251.40959,378.197561 250.944282,378.860923 250.445417,379.517305 L252.01,379.84 L252.01,380.08 L251.99,380.081719 L251.99,380.16 L248.532411,380.457214 C248.576202,380.767475 248.549099,381.088729 248.463698,381.411025 C248.014388,383.323458 245.472624,385.30168 243.476437,385.262075 L244.72,387.46 L244.660888,387.470871 L244.7,387.54 L238.61,388.66 L237.17,391.51 L233.854283,391.994985 L233.96,392.55 L234.53,392.83 L234.44732,392.87921 L234.51,392.91 L230.36,395.38 L229.91,393.97 L228.41224,397.464774 L229.4,397.85 C229.355856,397.8625 229.311597,397.874507 229.267232,397.88602 L229.38,397.93 C228.642648,398.138797 227.873142,398.209985 227.11,398.14 C226.565642,398.198749 226.073358,398.489427 225.758993,398.937081 C225.700622,399.354568 225.829736,399.775473 226.109028,400.087872 C226.141432,400.123639 226.175793,400.157923 226.212042,400.190554 C227.540901,400.551422 228.420978,401.939642 230.33,401.24 C231.49001,400.812647 232.74199,401.075454 233.625317,401.82944 C234.030046,402.158685 234.362254,402.588244 234.58,403.1 C234.588632,403.12158 234.601735,403.141521 234.618743,403.160029 C234.84998,403.313095 235.391423,403.352107 235.74,403.46 C235.770084,403.464266 235.800248,403.46837 235.830487,403.472325 C236.788862,402.311285 238.143068,402.836522 239.37,402.51 C240.61,402.18 241.83,401.78 243.15,401.38 L243.15,403.38 L246.36,402.95 L246.36,401.15 L249.36,404.39 L250.21,402.86 L254.27,406.91 C253.973322,407.054447 253.66137,407.16514 253.34,407.24 C253.05138,407.194012 252.76935,407.113432 252.5,407 L252.91,408.86 L248.62,404.78 L246.121603,408.177029 C246.151084,408.197998 246.180549,408.218989 246.21,408.24 L250.132383,410.328669 C251.519808,409.650538 253.463056,410.659433 254.74,412.56 C256.19,414.7 257.77,416.76 259.33,418.9 L254.985269,416.869844 C254.153952,417.339201 252.877094,417.669411 252.67,418.34 C252.46,419.02 253.23,420.12 253.67,421.2 L250,420.96 L250.15,423.96 L249.63,424.08 L249.608285,424.037319 L249.51,424.06 L248.394212,421.866899 L246.85,423.23 L247.85,423.82 C247.59,424.23 247.37,424.88 247.1,424.91 C247.057608,424.91471 247.009546,424.907588 246.957131,424.891265 C246.602695,424.901087 246.201766,424.464722 245.82,424.22 L246.02891,423.747682 L243.01,424.34 L245.1,426.03 C244.83,426.22 244.48,426.65 244.31,426.58 C244.294916,426.574539 244.279835,426.569071 244.264755,426.563598 C244.237182,426.569748 244.212074,426.569089 244.19,426.56 C242.469548,425.937078 240.778427,425.235943 238.758965,424.427596 L236.66,424.74 L237.86,425.32 L237.4,426.01 C236.06,426.29 234.72,426.65 233.4,426.83 C232.08,427.01 230.49,427.07 229.03,427.18 C229.831749,427.550055 230.660881,427.857637 231.51,428.1 C231.83,428.23 232,428.74 232.24,429.1 C231.920133,429.275139 231.621499,429.486532 231.35,429.73 C231.110915,430.065216 230.900185,430.419777 230.72,430.79 C230.685056,430.772117 230.650281,430.754775 230.615684,430.737971 C230.61043,430.748635 230.605202,430.759311 230.6,430.77 C230.14377,430.539201 229.716349,430.399871 229.335133,430.347565 C228.36265,430.256019 227.72,430.763478 227.72,431.79 C227.72,433.454839 229.670632,435.459696 231.481276,435.798591 C231.544371,435.807859 231.607307,435.815024 231.67,435.82 L233.67,435.98 L233.67,435.9904 L233.79,436 L233.79,436.49 L229.249011,436.49 C229.986451,436.87027 230.66956,437.347856 231.28,437.91 C232.054776,438.930618 233.745286,439.75144 233.556575,441.100146 C233.509686,441.571168 233.232852,442.106712 232.601332,442.738687 C232.788272,443.361589 233.169576,443.908812 233.69,444.3 C234.340154,444.489446 235.026791,444.516912 235.69,444.38 C237.91,444.25 240.24,445.24 242.32,443.52 C243.341867,442.892302 244.436659,442.391921 245.58,442.03 L245.572622,442.082338 C245.575081,442.081558 245.57754,442.080779 245.58,442.08 L244.83,447.4 L243.252477,447.00075 C242.267566,449.297674 241.684051,451.737555 239.209924,452.643313 C238.803541,452.800076 238.345381,452.915187 237.8249,452.980931 L238.23,453.55 L242.05,453.25 L233.55,458.25 L233.83,458.93 C235.058004,458.848625 236.278127,458.674799 237.48,458.41 C238.48074,458.061779 239.458086,457.650172 240.406122,457.177748 C240.548083,457.106528 240.689382,457.033943 240.83,456.96 L240.83054,456.961165 C240.850374,456.950803 240.870194,456.940415 240.89,456.93 L241.21,457.62 L239.23,458.723548 L235.633812,460.73432 L235.93,461.07 L239.93,460.86 L239.99,461.27 L239.927996,461.296308 L239.93,461.31 L234.313363,463.688576 L234.51,464.19 L238.441504,462.986062 L240.21,462.44 C240.209585,462.441628 240.209169,462.443254 240.208753,462.44488 L240.29,462.42 C239.31,466.34 235.06,465.59 233.06,467.86 C233.195547,467.90841 233.340468,467.984941 233.449384,467.989761 C233.896873,467.848522 234.388056,467.495771 234.832476,467.37783 C235.292101,467.232346 235.710528,467.312681 236,468.11 C236.15,468.52 235.09,469.67 234.36,470.05 C231.92,471.3 229.41,472.36 226.92,473.49 L219.8,476.7 L219.793862,476.6867 L219.72,476.72 L219.36,475.94 L221.760962,474.642857 L223.178387,473.862898 C222.180385,473.957057 221.221693,474.299789 220.39,474.86 C219.871858,475.210742 219.131313,475.80295 218.902838,476.246594 C218.851889,476.351696 218.830918,476.447948 218.85,476.53 C219.02,477.22 219.96,477.72 220.59,478.32 L220.570566,478.331044 C220.573718,478.334027 220.576863,478.337012 220.58,478.34 L218.335717,479.615386 L219.71157,480.086832 L219.68,480.05 L219.71304,480.087335 L219.75,480.1 C221.77,479.02 223.5,476.72 226.17,478.39 C224.2,479.68 222.3,481.35 219.69,480.04 L221.69,482.29 L222.31,481.01 L223.31,481.82 C223.258114,482.014455 223.199302,482.198684 223.134057,482.373442 C221.833493,485.944841 217.842793,485.581356 215.32923,487.645827 L220.84,486.45 L219.7,490.63 C219.698669,490.629322 219.697338,490.628644 219.696009,490.627968 L219.69,490.65 C218.47577,490.031573 218.086282,489.942117 217.822318,490.780574 C217.740597,491.052194 217.670322,491.41752 217.59,491.89 C217.538785,492.122737 217.458665,492.346829 217.352343,492.557389 C217.212812,492.839228 217.026563,493.097291 216.8,493.32 C216.10204,493.915858 215.371171,494.472043 214.610846,494.985927 L216.43,495.98 L216.394536,495.986085 L216.42,496 L214.753034,496.286047 C217.265997,499.370356 221.883457,499.475946 223.88,502.91 L223.858495,502.91 C223.86234,502.916654 223.866175,502.923321 223.87,502.93 L220.1647,502.93 L223.6,504.91 L223.29,505.54 L223.281498,505.536634 L223.27,505.56 L219.423239,504.037118 L219.473957,504.118126 L220.42,504.83 L220.1,505.17 L219.38,504.02 L219.40138,504.028464 L212.36,498.73 L212.355783,498.761876 L212.34,498.75 L212,501.32 C214.17,503.42 216.52,505.72 218.88,508.02 L218.737381,508.447856 L216.16,508.01 L216.147987,508.031357 L216.14,508.03 L215.96,508.35 L218.96,510.21 L218.950337,510.218015 L217.72,511.38 L215.58,511.51 L215.68,513.12 L215.492803,513.179903 L217.99,517.19 L217.953927,517.201399 L217.99,517.26 L215.539836,518.034252 C215.981855,518.51613 216.406638,518.996999 216.85,519.45 C216.855404,519.458688 216.860805,519.467377 216.866205,519.476065 Z M485.876544,669.795087 C486.428336,671.040444 486.757033,671.765419 487.01,672.32 L491.972757,671.248044 L488.69,667.34 C488.703548,667.338646 488.717099,667.337317 488.730651,667.336013 L488.736544,667.343029 C488.313287,667.563463 487.955628,667.820821 487.75,668.17 C487.34,668.9 488.07,670.34 488.34,671.71 L485.876544,669.795087 Z M705.63432,440.50335 L705.661663,440.516109 C705.681173,440.517328 705.700619,440.518624 705.72,440.52 L705.63,440.44 C705.63144,440.461121 705.63288,440.482237 705.63432,440.50335 Z M215.42116,513.086829 L215.3,512.89 L214.884551,513.258544 L215.42116,513.086829 Z M767.49,701.44 L188,701.44 L188,276 L767.49,276 L767.49,701.44 Z M354.97,662.01 C354.36,661.74 353.35,661.1 353.2,661.26 C351.99,662.56 350.76,661.71 349.53,661.47 L354.59,659.52 L354.46,659.1 L340.52,662.26 L341.95,663.26 C339.68,664.76 336.6,662.34 334.71,665.12 C336.53,665.51 338.3,666.49 339.57,666.05 C342.981412,664.684958 346.319282,663.142862 349.57,661.43 C351.06,663.28 349.2,663.3 348.27,663.69 C347.217308,664.062456 346.145842,664.379557 345.06,664.64 L345.21,665.15 L346.57,665.46 L343.85,666.68 L343.98,667.3 C345.13,667.12 347.03,667.3 347.31,666.69 C348.84,663.37 352.11,663.18 354.82,662 L361.07,659.91 C361.01,659.8 360.81,659.12 360.67,659.14 C359.060463,659.238745 357.461755,659.469521 355.89,659.83 C355.19,660.02 354.65,660.83 353.95,661.42 L354.97,662.01 Z M218.78,355.44 L221.21,355.44 L221.27,354.99 L219.1,354.27 L224.54,353.08 C223.686062,352.970617 222.855379,352.724114 222.08,352.35 C221.63,352 221.48,351.25 221.24,350.66 C221.07,350.24 220.95,349.79 220.81,349.35 L220.25,349.57 L220.69,352.57 C218.96,350.68 217.69,348.73 214.89,348.85 L219.45,352.19 L218.84,353.03 L215.48,350.81 L215.14,353.19 L214.9,356.01 L213.5,355.46 L214.62,359.46 L215.92,359.21 L216.14,358.74 L215.49,358.54 L218.78,355.44 Z M394.78,303.08 C393.652804,302.45114 392.463018,301.94171 391.23,301.56 C388.59,301.1 385.82,300.15 383.35,301.98 C382.664355,302.566182 382.312535,303.453217 382.41,304.35 C382.8,305.2 383.84,305.41 384.36,304.04 C384.692216,303.840617 385.097276,303.803793 385.46,303.94 C386.31,304.99 387.07,303.94 387.85,303.94 C389.58,303.94 391.3,304.23 393.02,304.37 C393.18,304.37 393.35,304.21 393.64,304.07 L392.2,303.67 L394.78,303.08 Z M674.46,668.85 L674.34,667.96 L654.49,670.44 L654.62,671.44 L674.46,668.85 Z M696.02,664.31 C694.98275,664.203051 693.93725,664.203051 692.9,664.31 C691.757537,664.634454 690.643765,665.052536 689.57,665.56 C689.19,665.71 688.81,666.07 688.45,666.04 C687.34,665.96 686.24,665.74 685.62,665.64 C685.25,666.74 685.06,667.29 684.77,668.16 L696.11,664.88 L696.02,664.31 Z M389.28,310.53 L389.28,309.83 L402.56,309.83 L402.56,309.19 L385.21,309.19 L385.16,309.68 L392.46,311.56 L392.63,310.82 L389.28,310.53 Z M616.28,298.63 L616.35,299.74 L630.98,298.56 L630.98,297.93 L616.28,298.63 Z M227.21,469.25 C226.63,468.87 225.82,468.09 225.59,468.25 C223.34,469.67 221.2,471.25 219.03,472.76 L219.56,473.52 L227.21,469.25 Z M724.79,663.58 L734.45,665.65 C733.49,663.28 727.97,662.35 724.79,663.58 Z M719.32,498.25 L722.14,489.33 C718.33,493.64 717.73,495.6 719.32,498.25 Z M232.21,358.24 C231.73,359.66 230.64,361.16 232.54,361.56 C234.14,361.9 235.96,361.2 237.68,360.96 L237.68,360.02 L232.85,359.38 L232.21,358.24 Z M244.67,570.24 L241.43,574.36 C239.88,569.78 239.88,569.78 244.67,570.24 Z M731.65,302.19 C732.71,298.29 734.51,296.83 736.86,297.46 L731.65,302.19 Z M706.08,652.49 C705.26,651.24 698.89,653.06 697.19,655.6 L706.08,652.49 Z M367.52,309.98 L375.65,311.06 L376.01,310.33 C375.48,309.98 374.92,309.33 374.4,309.33 C372.3,309.42 370.21,309.71 367.52,309.98 Z M415.98,308.69 C414.18,305.42 412.09,305.92 409.54,307.18 L415.98,308.69 Z M233.08,415.82 L231.21,410.55 L230.53,410.75 C230.63,411.92 232.16,413.57 228.89,413.75 L233.08,415.82 Z M219.32,437.1 L223.58,433.73 L223.58,432.19 L219.97,434.71 L219.32,437.1 Z M724.67,426.32 C724.82,426.6 724.96,426.88 725.1,427.16 L731.7,423.75 L731.4,423.16 L724.67,426.32 Z M239.06,418.12 L239.06,417.25 C237.75,417.17 236.45,417.06 235.14,417.06 C234.97,417.06 234.65,417.67 234.69,417.96 C234.813,418.286442 235.097227,418.525192 235.44,418.59 C236.68,418.5 237.87,418.29 239.06,418.12 Z M337.21,658.99 L337.14,659.25 C338.540473,659.557596 339.960519,659.768097 341.39,659.88 C342.796813,659.81989 344.197278,659.656113 345.58,659.39 L345.52,658.99 L337.21,658.99 Z M431.32,308.25 L437.54,308.81 C435.53,308.71 433.32,310.97 431.32,308.25 Z M336.13,308.77 C334.818287,309.072443 333.523202,309.442944 332.25,309.88 C331.73,310.09 331.36,310.65 330.72,311.24 C331.826564,311.13901 332.919323,310.921129 333.98,310.59 C334.754988,310.071736 335.463594,309.460521 336.09,308.77 L336.13,308.77 Z M443.48,665.77 L443.34,666.38 C444.328746,666.563971 445.335266,666.634428 446.34,666.59 C447,666.5 447.57,665.85 448.19,665.46 L447.96,665.04 L443.48,665.77 Z M684.33,666.85 L684.14,666.15 L675.53,667.94 L675.66,668.49 L684.33,666.85 Z" id="形状结合"></path>
        </g>
    </g>
</svg>