<?xml version="1.0" encoding="UTF-8"?>
<svg width="529px" height="137px" viewBox="0 0 529 137" version="1.1" xmlns="http://www.w3.org/2000/svg" xmlns:xlink="http://www.w3.org/1999/xlink">
    <title>形状结合-path备份</title>
    <g id="页面-1" stroke="none" stroke-width="1" fill="none" fill-rule="evenodd">
        <path d="M15.03,60.11 L16.54,60.85 C15.54,62.34 16.28,64.85 13.68,65.28 C14.18,65.74 14.54,66.09 15.1,66.62 L7.73,67.26 L11.73,70.49 L9.97,72.68 L10.97,73.18 L9.37,74.49 L15.384983,75.767693 C16.374112,74.953798 16.782955,74.338848 17.37,74.11 C18.489877,73.527161 19.719848,73.186449 20.98,73.11 C21.015662,73.113318 21.051276,73.116921 21.08684,73.120808 C21.091226,73.120536 21.095613,73.120266 21.1,73.12 C22.385035,73.239558 23.607787,73.729354 24.62,74.53 C25.958383,75.768332 27.201879,77.105425 28.34,78.53 C28.23719,78.73247 28.175986,78.953486 28.16,79.18 C28.09,79.99 28.09,80.81 28.06,81.63 C27.388347,81.576268 26.689627,81.563136 25.997169,81.508796 C25.596241,81.480798 25.214708,81.442674 24.87,81.38 C23.99,81.22 23.15,80.72 22.27,80.63 C19.23,80.31 16.82,78.46 14.09,77.4 C13.073811,77.01288 11.98269,76.784989 10.76225,76.435317 L10.917815,78.185413 L12.9,77.94 C12.889482,77.949683 12.879067,77.959258 12.868754,77.968726 L13.02,77.95 C12.39,78.51 12.13,78.7 11.93,78.95 C11.598528,79.347766 11.293964,79.763471 10.98233,80.180125 C11.399537,80.042812 11.831778,79.955442 12.27,79.92 C12.301207,79.92397 12.332399,79.928037 12.363577,79.932201 C12.372382,79.931446 12.38119,79.930713 12.39,79.93 C13.16091,80.028075 13.923151,80.185203 14.67,80.4 L13.1,81.04 L13.92,82.04 C12.18,83.4 9.32,82.52 8.2,85.2 L10.78,85.52 L9.57,87.42 L15.57,87.42 L15.458742,87.47 L15.48,87.47 L12.268101,88.95317 C14.753831,89.94544 16.927146,90.936797 19.13,91.81 C19.64114,91.971619 20.167046,92.08216 20.7,92.14 L20.91,90.31 L24.61,95.03 L26.67,94.79 L26.633936,94.904202 L26.67,94.9 L26.460511,95.563382 L28.71,96.55 L28.625359,96.622877 L28.71,96.66 L26.199738,98.821345 L28.28,99.9 L28.161922,99.948774 L28.28,100.01 L19.743884,103.536004 L19.83,103.78 L23,102.96 C22.942045,103.0118 22.88399,103.063484 22.825836,103.115052 L23,103.07 C21.136167,104.735876 19.168913,106.282292 17.11,107.7 C14.77,109.47 13.94,109.23 12.77,105.94 L12.33,107.05 L10.57,105.51 L10.174713,105.886902 L10.79,107.25 L10.745203,107.260758 L10.79,107.36 L8.357208,107.944253 C8.577342,108.122074 8.782326,108.317992 8.97,108.53 C9.46,109.35 9.97,110.17 10.39,111 C11.67,113.32 12.48,113.43 14.82,112 C15.74,111.45 17.39,110.8 17.95,111.21 C20.12,112.83 21.81,111.35 23.55,110.69 C25.96,109.77 28.21,108.38 30.64,107.53 C31.73,107.14 33.14,107.74 34.34,107.53 C36.93,107.13 39.47,106.53 42.03,105.98 L42.03,106.15 L42.03,106.32 L33.13429,110.304641 L33.35,110.9 L35.6,110.9 L35.71,111.4 L35.632229,111.429224 L35.65,111.51 L32.512303,112.689073 L32.71,113.39 C35.9,112.51 39.06,111.18 42.31,110.86 C45.56,110.54 49.07,111.19 52.46,111.43 L52.61,112.29 L52.534219,112.309525 L52.55,112.4 L42.754867,114.923721 C43.575079,114.99783 44.595582,115.114128 45.6,115.15 C48.36,115.27 51.13,115.15 53.87,115.46 C57.56,115.83 61.19,116.25 64.31,113.6 L64.460816,113.6 C65.610758,113.004244 66.788488,112.463626 67.99,111.98 C68.821783,111.774637 69.673488,111.660629 70.53,111.64 L70.638644,111.556529 L70.58,111.53 L72.136206,110.334378 L71.77,109.84 L69.59,110.12 C69.632336,110.079266 69.674886,110.039276 69.71764,110.000028 L69.64,110.01 C71.48,108.23 73.75,107.87 75.49,108.8 C77.49,109.88 78.49,106.25 80.8,108.38 C81.89,109.38 84.52,108.8 86.26,108.92 L86.187082,109.028465 C86.194739,109.028963 86.202378,109.029474 86.21,109.03 L84.683958,111.299987 C87.554863,111.296959 90.226379,110.751941 92.52,111.45 C95.06,112.21 97.16,111.31 99.52,111.1 C101.88,110.89 104.45,111.1 106.91,111.1 L106.97,111.53 C106.949745,111.541092 106.929513,111.552207 106.909304,111.563345 L106.92,111.64 C106.522192,111.857847 106.133355,112.084666 105.744991,112.311959 L105.88,112.96 C106.73,112.84 107.59,112.68 108.45,112.61 C110,112.49 111.45,111.37 113.19,112.78 C114.01,113.43 115.87,112.78 117.37,112.7 C117.787107,113.941619 119.276873,113.30138 119.667035,112.568205 C119.688292,112.516885 119.710174,112.467129 119.732657,112.41889 C120.526626,110.50844 122.197993,110.808764 123.49,110.72 C126.66,110.49 129.85,110.64 133.04,110.64 L132.959733,110.749996 C132.969822,110.749998 132.979911,110.75 132.99,110.75 L132.509159,111.40893 L133.32,113.97 C133.301564,113.998642 133.281351,114.024162 133.259496,114.046823 L133.27,114.08 C132.809929,114.794753 131.229436,113.565641 130.680024,114.479413 C130.593779,114.673695 130.542963,114.942568 130.54,115.31 C133.364965,116.192902 136.446388,115.498819 138.62,113.49 C140.603187,111.602827 143.497609,111.030176 146.05,112.02 L145.94823,112.110155 C145.965502,112.116699 145.982759,112.123314 146,112.13 L144.232554,113.678998 L144.56,114.1 L148.79,112.1 L150.47,112.83 L150.427705,112.847276 L150.48,112.87 L143.872714,115.568891 L144.03,116.05 L153.24,113.44 L153.57,114.26 L153.565007,114.262744 L153.58,114.3 L150.771034,115.843935 L151.5,117.02 C153.31,116.31 155.02,115.02 156.65,115.12 C159.99,115.31 163.3,116.23 166.81,116.88 L166.747164,116.906468 C166.771433,116.910991 166.795712,116.915502 166.82,116.92 L163.8668,118.203179 C166.943543,118.405811 169.812123,116.387585 172.7,118.47 C172.67948,118.487907 172.6585,118.505176 172.637094,118.521794 C172.65473,118.534374 172.672365,118.547108 172.69,118.56 C172.427092,118.789426 172.088914,118.914018 171.74,118.91 C171.511704,118.946527 171.291748,119.02475 170.866908,119.137052 C174.931294,121.08863 178.870258,119.667127 182.748254,119.460404 L181.75,119.4 C181.760841,119.369463 181.77245,119.339978 181.784792,119.3115 L181.76,119.31 C182.293039,117.808606 184.680823,118.848606 184.905638,117.227307 C184.921333,117.042294 184.911125,116.825355 184.87,116.57 C184.877813,116.57 184.885626,116.569999 184.893439,116.569998 C184.889396,116.540541 184.884919,116.510545 184.88,116.48 C187.68,116.48 190.51,116.4 193.33,116.48 C195.41,116.56 197.5,116.82 198.65,119.18 L198.598715,119.186968 C198.612608,119.214352 198.62637,119.242029 198.64,119.27 L196.829243,119.516027 L196.98,120.19 C197.98,119.97 199.15,120.05 199.77,119.48 C201.06,118.3 200.95,118.16 202.07,119.36 L204.72,118.68 L204.83,119.03 L204.798017,119.050054 L204.82,119.12 L203.03065,120.246994 C203.394123,120.641621 203.893432,120.886059 204.43,120.93 C204.942384,119.623047 206.292578,118.846166 207.68,119.06 C209.44,119.16 211.15,120.59 212.88,120.6 C216.182412,120.544631 219.475583,120.233702 222.73,119.67 C224.73,119.37 226.73,118.67 228.9,118.16 C228.892573,118.188022 228.885248,118.215667 228.878016,118.24297 C228.895331,118.238639 228.912659,118.234315 228.93,118.23 C228.715459,119.039404 228.586507,119.573022 228.320571,120.526395 C231.670726,120.2874 234.725413,120.029149 237.79,119.86 C239.23,119.78 241.09,119.32 242.05,120.01 C244.54,121.8 246.81,120.62 249.23,120.33 C252.339315,119.960081 255.488613,119.850048 258.677893,119.630145 L257.97,118.09 L257.94,118.02 C258.872377,118.250281 259.765432,118.617613 260.59,119.11 C262.48,120.74 262.46,120.92 264.48,120.3 C265.9,119.86 267.14,118.74 268.56,118.44 C271.164579,117.95112 273.795868,117.6172 276.44,117.44 C277.059219,117.41308 277.660166,117.653459 278.09,118.1 C279.7,120.21 281.35,118.91 282.74,118.04 C284.258369,116.89566 286.235157,116.553166 288.05,117.12 L287.923535,117.14349 C287.975813,117.158248 288.027973,117.17375 288.08,117.19 L283.57357,118.027047 L285.15,118.51 L285.085693,118.551108 L285.18,118.58 L281.41,120.99 L278.52,120.62 L278.466292,121.19289 L279.56,121.28 C279.543999,121.301219 279.528046,121.322487 279.512136,121.343798 L279.59,121.35 C279.13,121.96 278.71,122.61 278.21,123.19 C277.835184,123.647873 277.389557,124.042861 276.89,124.36 C276.321267,124.689546 275.619749,124.925861 275.007694,125.210101 C275.62135,125.168822 276.237591,125.178788 276.85,125.24 C276.857404,125.273118 276.865077,125.305888 276.873014,125.338315 C276.878676,125.338873 276.884338,125.339434 276.89,125.34 C276.942103,125.57304 277.007487,125.78885 277.084775,125.989564 C277.847583,127.826743 279.639156,128.365051 281.32,129.37 C283.551112,130.829723 286.085009,131.722428 288.703632,131.995654 C289.866517,132.107334 291.045006,132.096909 292.22,131.96 C294.83,131.67 297.46,131.46 300.08,131.39 C301.34,131.35 302.64,132 303.87,131.84 C306.99,131.45 310.07,130.78 313.18,130.24 C313.47,130.19 313.8,130.37 314.09,130.32 C316.04,129.93 318.19,129.9 319.88,129.02 C323.72,127.01 327.31,124.55 331.05,122.35 C331.81307,122.020651 332.616925,121.795302 333.44,121.68 L333.62,122.32 L333.603627,122.327342 L333.61,122.35 L331.418226,123.332858 L333.19,124.14 C333.181645,124.147712 333.173287,124.155423 333.164925,124.163132 L333.18,124.17 C332.538517,124.762138 331.887294,125.344537 330.899523,126.263229 L335.23,125.27 C335.99,125.91 336.87,127.05 337.23,126.91 C338.97,126.19 341.14,126.41 342.39,124.46 C343.33,122.94 344.6,121.67 346.48,123.46 C346.71,123.67 347.26,123.59 347.65,123.59 L360.43,124.11 C360.54,124.11 360.65,124.27 360.76,124.36 L360.73163,124.374352 C360.73775,124.37976 360.743875,124.384989 360.75,124.39 L359.931682,124.803973 L361.71,125.95 L361.653448,125.95 L361.7,125.98 L349.84,125.98 L349.84,126.34 L361.66,127.18 L361.78,127.8 C361.691336,127.857956 361.601456,127.910918 361.510423,127.959294 C359.550784,129.068959 356.93552,127.891501 354.476243,128.86898 C356.159835,128.763617 357.848864,128.780668 359.53,128.92 C361.037715,129.287232 362.515311,129.76862 363.95,130.36 C361.94,132.91 366.43,132.59 366.14,134 C366.918951,134.356255 367.755577,134.569645 368.61,134.63 C368.873829,134.580207 369.127513,134.495694 369.365123,134.380191 C369.774138,134.169935 370.132873,133.866636 370.41,133.49 C370.71,133.05 370.47,132.24 370.47,131.6 L370.530292,131.609276 C370.530099,131.596116 370.53,131.583023 370.53,131.57 L370.92,131.63 L370.92,136.63 L374.16,135.1 C374.536181,135.510379 377.580334,135.467569 378.805449,134.821585 C378.983264,134.719026 379.116794,134.602032 379.19,134.47 L378.37,132.98 L378.89,132.59 L378.897625,132.599281 L378.95,132.56 L380.7,134.69 L387.194247,132.104235 L387.12,131.7 L376.32,132.34 C376.34821,132.305302 376.375927,132.270715 376.40317,132.236257 L376.34,132.24 C377.29,131.01 377.72,129.92 378.4,129.73 C379.08,129.54 380.01,130.26 381.23,130.73 C382.27,130.35 384.13,129 385.68,129.3 C387.115396,129.521766 388.579128,129.481107 390,129.18 C392.86,128.75 395.72,128.25 398.6,128.05 C401.82,127.82 405.06,127.82 408.29,127.82 C411.9,127.82 415.5,127.82 419.1,127.82 L419.19,128.66 L419.160415,128.670537 L419.17,128.76 L417.797578,129.248808 C420.56337,132.01555 425.631144,131.12633 426.99,128.24 C428.96,128.1 430.65,128.3 432.11,127.81 C435.02,126.83 437.86,125.83 440.86,127.22 C441.30963,127.390632 441.798002,127.432195 442.27,127.34 C445.07,126.9 447.86,126.36 450.67,125.96 C455.820621,125.231327 460.981205,124.592327 466.131863,123.913708 L466.08,123.3 L452.64,123.3 L452.852739,123.2 L452.68,123.2 L455.948711,121.66351 L455.82,121.39 L450.713873,122.545545 L450.81,122.89 L452.64,123.14 L452.64,123.58 L452.6,123.58315 L452.6,123.68 L448.79,123.98 L448.864468,123.877286 L448.83,123.88 L449.3432,123.172139 C448.444922,122.907342 447.58619,122.523213 446.79,122.03 C445.5,120.96 444.41,120.77 443.1,121.82 C443.178397,121.732365 443.259575,121.647555 443.343372,121.565681 C443.276141,121.613777 443.20837,121.6652 443.14,121.72 C443.722205,121.069187 444.457825,120.574191 445.28,120.28 C445.791945,120.115554 446.323025,120.018077 446.86,119.99 C449.55,119.64 451.78,117.59 454.86,117.99 C457.11,118.29 459.47,117.7 461.79,117.51 L461.298975,116.547205 C461.279315,116.551474 461.259656,116.555739 461.24,116.56 L453.14,117.5 L452.94,116.57 L452.988422,116.559162 L452.98,116.52 L461.239577,114.671286 L461.18,114.45 L456.53,115.06 C456.658435,114.500388 456.660629,113.915528 456.822255,113.768677 C456.84661,113.728694 456.875302,113.701566 456.91,113.69 C459.78,112.64 462.59,111.27 465.59,110.81 C468.125848,110.504347 470.640567,110.043482 473.12,109.43 C478.6,107.89 484.42,107.46 490.12,106.57 L490.3,107.38 L490.253657,107.401457 L490.26,107.43 L484.602797,110.049256 L499.28,107.35 C499.238906,107.403873 499.197478,107.4572 499.15572,107.509992 C495.4668,112.26423 489.099087,112.700846 484.335481,116.12089 L493.28,113.04 C493.369109,113.673664 493.419006,114.121072 493.497633,114.663695 L494.93,112.14 L494.938657,112.145224 L494.97,112.09 L495.55,112.44 C495.32,113.01 495.08,113.58 494.84,114.15 C496.40663,112.455281 497.118938,114.420552 498.01,114.899572 L498.01,114.27 C498.023327,114.276147 498.03666,114.282278 498.05,114.288393 L498.05,114.22 C499.329875,114.810325 500.671463,115.256403 502.05,115.55 C504.39,115.78 506.74,115.53 509.05,115.72 C510.098326,115.804172 510.982703,115.841502 511.559754,115.146471 C511.719218,114.939646 511.853722,114.672692 511.96,114.33 L510.16,113.77 L510.27,113.54 L510.286087,113.54 L510.31,113.49 L516.5,113.49 L514.91,114.63 C516.761401,116.99623 519.220531,116.049358 521.831274,115.865312 C521.424324,113.781334 521.027162,111.775526 520.63,109.75 C517.45,110.56 517.13,110.42 515.1,108.75 C513.794725,107.689293 512.403233,106.739332 510.94,105.91 C509.892877,105.425926 508.805394,105.034433 507.69,104.74 L507.766216,104.691642 C507.764144,104.691094 507.762072,104.690547 507.76,104.69 L509.130429,103.820486 C506.763862,103.941207 504.487536,104.387079 502.66,102.22 L499.44,103.22 L500.34,101.02 L500.307177,100.998118 C496.491602,102.04422 492.682965,103.382789 488.56,102.58 C487.54,102.38 486.41,102.73 485.21,102.3 L493.1,100.5 L491.1,99.22 L498.92,99.82 L504.92,95.82 C505.02,96 505.25,96.45 505.46,96.88 L509.1,96.371183 L509.1,96.19 L506.23,96.03 C506.287088,96.004881 506.343598,95.97986 506.399544,95.954992 L506.31,95.95 C508.29,95.04 509.6,94.31 510.83,96.04 C511.201156,96.433994 511.709533,96.670282 512.25,96.7 C514.47,96.86 516.69,96.9 518.9,97.03 C519.756425,97.081905 520.437734,96.875177 520.894986,96.448972 C521.265057,96.056967 521.465505,95.502168 521.47,94.81 C521.47,94.13 520.62,93.44 520.2,92.81 L520.284407,92.736484 C520.282933,92.734322 520.281464,92.732161 520.28,92.73 L523.291166,90.107372 L522.09,89.75 C522.122266,89.724014 522.154945,89.699153 522.188015,89.67536 L522.17,89.67 C523.472388,88.592161 525.516997,89.458617 526.774852,88.131719 C526.887884,87.999076 526.993361,87.846323 527.09,87.67 L522.09,87.95 L522.09,87.76 L522.17,87.7416 L522.17,87.68 L527.904619,86.361038 L520.66,85.62 L520.769792,85.543047 L520.74,85.54 L522.880583,84.039681 L521.47,83.29 L521.649716,83.262996 L521.55,83.21 L523.4,82.932021 L523.4,82.78 L519.97,82.32 L520.09,81.62 L520.154386,81.63108 L520.17,81.54 L522.273445,81.901988 L522.43,81.49 L514.8,78.65 C514.8,78.46 514.88,78.26 514.91,78.07 L514.986189,78.07 C514.988639,78.043175 514.99,78.01649 514.99,77.99 L525.39,77.99 C526.06489,78.93672 527.363599,78.029554 529.047293,78.167471 L523.75,75.95 L523.948834,75.932303 L523.8,75.87 L525.649086,75.705422 L525.6,75.37 L519.75,76.044237 L519.75,76.19 L521.49,76.35 L521.49,76.83 L521.44,76.823671 L521.44,76.91 L513.54,75.91 L512.66,76.97 L512.34,76.71 L513.06,75.11 L513.074,75.11 L513.11,75.03 L519.65,75.03 L519.65,74.62 L516.77,74.31 L516.83,73.87 L516.868418,73.874932 L516.88,73.79 L524.630798,74.784968 L524.7,74.24 L522.7,73.58 L522.76,73.24 L522.796748,73.235093 L522.81,73.16 L525.964591,72.738735 L525.9,72.44 L524.73,72.29 L525.29,70.08 L525.328582,70.04506 L525.34,70 L528.14111,67.46333 L527.93,66.83 L524.21,66.83 L524.21,66.27 L524.21,66.19 L527.68,65.942849 L527.68,65.39 L523.38,64.58 L523.484463,64.552143 L523.42,64.54 L527.10081,63.558451 L522.24,59.97 C520.967467,60.393928 519.6475,60.659264 518.31,60.76 C514.31,60.69 510.31,60.22 506.31,60.17 C503,60.17 500.95,58.89 500.55,55.79 L500.597889,55.809336 C500.595192,55.789634 500.592562,55.769855 500.59,55.75 L503.24,56.82 L502.99,57.42 L502.971349,57.408762 L502.95,57.46 L501.499974,56.586267 C502.75876,58.438034 505.191295,58.899069 508.476643,57.795149 L504.23,57.47 L504.23,57.07 L504.27,57.07 L504.27,57.03 L515.554926,57.03 C513.554416,53.867956 510.501619,56.005246 508.5,54.87 L508.43,54.14 L508.47306,54.131911 L508.47,54.1 L518.81,52.19 L517.23,51.11 L517.280606,51.077713 L517.27,51.07 C517.924365,50.65621 518.652812,50.186859 519.401875,49.724324 L519.44,49.7 C519.442986,49.698958 519.444675,49.697917 519.446365,49.696875 C517.112893,49.573842 514.692583,51.116842 512.42,49.4 C513,47.94 499.352964,57.1147975 498.156243,56.1306045 L498.712176,55.2820745 L501.086243,56.7006045 L501.100727,56.6793835 L501.136243,56.7006045 L501.566243,56.0706045 L498.496243,53.6906045 L498.469223,53.7084195 L498.446243,53.6906045 L493.924272,56.6721245 L492.885494,55.7983855 C492.888645,55.8167285 492.891805,55.8350495 492.89498,55.8533335 L492.834189,55.7985505 L492.900395,55.8529745 L492.936243,55.8506045 C492.812275,55.1067935 492.709592,54.2948685 492.219884,54.3286675 C491.962301,54.3150395 491.590434,54.5524615 491.034084,55.1965055 C490.719134,54.0536955 490.44231,53.0060155 490.136243,51.8706045 L490.087469,51.8751515 L482.305618,52.5960015 L482.196243,51.7906045 C482.920652,51.5947425 483.655039,51.4378505 484.396243,51.3206045 C486.506243,51.0906045 488.666243,51.1006045 490.736243,50.6806045 C490.99133,50.6244175 491.245407,50.5640645 491.498615,50.5002385 C493.122301,50.1097925 494.710634,49.5575535 496.301082,49.0271085 C496.669222,48.9086695 497.037454,48.7924095 497.406243,48.6806045 C494.856243,46.5406045 491.436243,47.0406045 487.916243,46.8606045 L494.426243,43.6306045 C496.286243,42.6906045 498.826243,42.8206045 499.716243,40.4506045 L495.416243,38.6906045 L501.216243,35.0606045 C501.066243,34.4806045 500.896243,33.8406045 500.756243,33.3306045 L497.086243,33.0706045 L502.166243,28.7306045 L499.916243,28.3206045 L500.586243,28.1406045 L499.822495,25.2789665 L502.356243,23.1906045 C502.304522,23.1906045 502.253081,23.1930765 502.201931,23.1977915 L502.356243,23.0706045 C500.621512,23.1003425 499.201221,25.8519555 498.533694,22.7732595 L499.016243,21.7406045 C499.136243,21.5406045 499.256243,21.3506045 499.366243,21.1406045 C499.366243,21.0906045 499.366243,21.0006045 499.366243,20.8506045 L499.326243,20.8607825 L499.326243,20.7306045 L497.705258,21.1430445 C498.181104,18.9678055 499.115186,18.5760495 502.483857,19.0811895 C502.311319,19.9327205 502.138781,20.7662565 501.966243,21.5906045 L502.023232,21.6294055 C502.017569,21.6564815 502.011906,21.6835485 502.006243,21.7106045 L502.476243,22.0306045 C503.296243,20.4306045 504.126243,18.8306045 505.066243,17.0306045 L504.983758,16.9937495 C504.997895,16.9660885 505.012056,16.9383735 505.026243,16.9106045 L501.358123,15.2716575 L505.906243,8.3506045 L505.74859,8.4096425 L505.866243,8.2306045 L501.130282,10.1150185 C501.304394,9.0181285 501.598128,7.9435815 502.006243,6.9106045 C503.006243,5.0606045 504.176243,3.3206045 505.276243,1.5406045 L505.265569,1.5216955 C505.265793,1.5213315 505.266018,1.5209685 505.266243,1.5206045 L504.916243,0.900604495 C503.933232,1.0531395 502.974845,1.3356115 502.066243,1.7406045 C499.456243,3.3506045 496.966243,5.1006045 494.456243,6.8406045 C493.572039,7.6063115 492.647376,8.3240105 491.686243,8.9906045 C490.611103,9.3606955 489.496661,9.6046975 488.365305,9.7177305 L491.846243,5.5406045 L491.799722,5.5644295 L491.836243,5.5206045 L487.716243,7.6306045 C486.222468,5.1011455 483.54855,6.3699635 481.017875,5.3929375 L486.046243,3.6106045 L486.046243,3.3606045 L486.036243,3.3613975 L486.036243,3.3406045 L478.216243,3.9606045 C478.317918,4.4605815 478.36154,4.9706235 478.346243,5.4806045 C477.678057,5.6578215 476.995316,5.7746905 476.306243,5.8298085 L476.306243,5.4306045 L477.066243,5.1206045 C477.056844,5.1163835 477.047443,5.1121915 477.038041,5.1080285 L477.056243,5.1006045 C473.734211,3.6041935 470.183279,5.7900975 467.078576,3.8645315 L469.706243,2.5706045 C469.695128,2.5677545 469.684016,2.5649185 469.672908,2.5620955 L469.696243,2.5506045 C465.796243,1.5306045 462.316243,2.2206045 458.626243,4.4006045 L458.686368,4.3910765 C458.669664,4.4008885 458.652956,4.4107305 458.636243,4.4206045 L462.277293,3.8436075 C462.104856,4.2760535 461.73739,4.6017895 461.286243,4.7206045 C458.216243,5.3506045 455.506243,6.8606045 451.886243,5.6706045 C449.096243,4.7606045 445.466243,5.7206045 442.396243,6.5306045 C437.296243,7.8806045 432.296243,9.7706045 427.296243,11.4306045 L427.506243,12.0806045 L427.516243,12.1006045 L431.311273,11.2417295 L431.456243,11.8506045 L426.696243,13.2306045 L426.709475,13.2496675 L427.283659,14.0824755 C426.662304,14.5322845 425.992279,14.9107115 425.286243,15.2106045 C424.646243,15.4206045 423.456243,15.6206045 423.286243,15.3506045 C422.136243,13.4506045 420.646243,14.7006045 419.336243,14.8006045 C418.0281,14.9004625 416.68007,15.0501795 415.341941,15.1800515 L415.256243,14.7706045 L420.956243,13.4706045 L420.956243,12.6206045 L420.946243,12.6185085 L420.946243,12.6006045 L417.426243,11.8627005 L417.426243,11.5106045 L422.766243,10.8406045 L422.766243,10.1806045 L422.756243,10.1795265 L422.756243,10.1606045 L414.649033,9.2862975 C416.615823,8.6200785 417.277963,7.1959145 417.516243,5.1606045 L417.504253,5.1574965 C417.50492,5.1518705 417.505583,5.1462405 417.506243,5.1406045 L403.363736,1.4906045 L410.286243,1.4906045 L410.286243,0.950604495 L410.216243,0.950604495 L410.216243,0.930604495 L394.726243,0.930604495 L394.726243,1.8106045 L394.756243,1.8162255 L394.756243,1.8306045 L399.109242,2.6461775 C396.658952,2.9395765 394.523547,3.6384465 392.536243,3.3006045 C389.376243,2.7406045 387.256243,4.1506045 385.096243,6.0406045 L385.156828,6.0338725 C385.146634,6.0427725 385.136439,6.0516835 385.126243,6.0606045 L388.161267,5.7233795 L388.306243,6.3806045 C385.936243,6.3806045 384.456243,9.6206045 381.586243,7.7706045 L381.216243,8.5306045 L381.208873,8.5361775 C380.472923,8.2467725 379.498878,7.5547895 379.066243,7.8006045 C377.116243,8.9206045 375.336243,10.3206045 373.486243,11.6206045 L373.474349,11.6267525 L373.416243,11.6006045 L366.646243,15.0806045 L366.733292,15.1111165 L366.676243,15.1406045 L368.518193,15.7862365 L362.586243,18.0206045 L362.686804,18.0540265 L362.616243,18.0806045 L365.931305,19.1823755 C360.189519,22.4871475 353.980158,21.1530805 348.039416,21.8349725 C348.43253,21.5599175 348.888361,21.3862965 349.366243,21.3306045 C351.586243,21.1206045 353.816243,20.9706045 356.046243,20.7706045 C358.276243,20.5706045 358.456243,20.3106045 358.196243,17.9106045 L358.172962,17.9131255 C358.170759,17.8924485 358.168518,17.8716085 358.166243,17.8506045 L350.701365,18.6589665 L350.506243,17.8506045 L354.506243,16.5706045 L354.506243,15.9406045 C354.496243,15.9441855 354.486243,15.9477625 354.476243,15.9513355 L354.476243,15.8806045 C350.601815,17.2678675 346.737206,18.1052735 342.921335,16.2231355 C344.620804,16.0556745 346.329111,15.9947095 348.036243,16.0406045 C348.355195,16.1263895 348.658836,16.2613415 348.936243,16.4406045 C348.196243,13.5506045 350.706243,15.1006045 351.936243,13.6206045 C351.904744,13.6251045 351.873309,13.6295765 351.841938,13.6340225 C351.863734,13.6104135 351.885176,13.5859535 351.906243,13.5606045 C348.966243,13.9806045 346.586243,14.1606045 344.296243,14.7006045 C341.137763,15.4408735 341.116266,15.5673845 340.327746,14.0800975 L341.956243,13.5306045 C341.913487,13.5209235 341.870706,13.5119955 341.8279,13.5037875 L341.926243,13.4706045 C339.276243,12.8706045 336.526243,15.1606045 334.106243,12.7306045 C329.723821,13.0966305 327.866279,12.8754755 324.777291,11.5249895 L329.256243,10.5406045 L329.191215,10.4883035 L329.226243,10.4806045 L325.544165,7.5191485 L326.236243,6.6906045 C326.203689,6.6972975 326.171487,6.7038805 326.139626,6.7103565 L326.206243,6.6306045 C325.136243,6.8506045 324.446243,6.9506045 323.776243,7.1306045 C321.726243,7.6806045 319.706243,8.3806045 317.636243,8.7806045 C314.546243,9.3806045 311.396243,9.6906045 308.306243,10.3106045 C307.326243,10.5106045 306.506243,11.3906045 305.556243,11.8006045 C304.91475,12.0928315 304.208356,12.2134355 303.506243,12.1506045 C302.206243,11.9706045 300.946243,11.4106045 299.656243,11.3306045 C298.33525,11.2635765 297.011513,11.3882035 295.726243,11.7006045 C294.736243,11.9106045 293.886243,12.8406045 292.886243,12.9106045 C291.236243,13.0306045 289.546243,12.5606045 287.886243,12.6506045 C285.816243,12.7706045 283.706243,13.5206045 281.706243,13.4306045 C275.976243,13.1606045 270.256243,12.6106045 264.526243,12.1606045 C263.166243,12.0606045 261.706243,11.9006045 260.446243,11.8106045 C259.186243,11.7206045 257.926243,11.6806045 256.326243,11.6106045 L256.462614,11.6752285 C256.427371,11.6737065 256.391916,11.6721655 256.356243,11.6706045 L258.987736,12.9176185 L258.766243,13.3606045 L248.766243,10.3606045 L248.516243,11.3606045 L248.559774,11.3664785 L248.546243,11.4206045 L252.660436,11.9757725 L252.586243,12.6806045 L240.166243,11.6106045 L240.756243,10.3506045 C237.306208,9.1386685 235.170874,9.2649115 233.644124,10.8054835 C233.415367,11.0238125 233.200166,11.2721715 232.996243,11.5506045 L234.996243,11.9106045 L234.832254,12.7123285 C232.213742,12.3722265 229.604751,11.8594735 226.966243,11.7206045 C225.146243,11.6206045 223.156243,11.9706045 221.456243,11.8106045 C219.406243,11.6206045 216.646243,12.8206045 214.976243,9.9106045 C214.964336,9.9602175 214.952144,10.0082335 214.939674,10.0546955 C214.925117,10.0303005 214.91064,10.0056045 214.896243,9.9806045 C214.755132,10.5685685 214.574072,10.9329785 214.36353,11.1450515 C213.497464,11.8375255 212.18549,10.2557335 211.086243,10.9106045 L211.126018,10.9198415 C211.085837,10.9373565 211.045902,10.9575405 211.006243,10.9806045 L213.087851,11.4640115 C212.134776,12.0175255 211.137516,12.4913475 210.106243,12.8806045 C208.996243,11.2906045 207.836243,9.9106045 205.726243,9.7206045 C205.726243,9.7206045 205.726243,9.4306045 205.726243,9.2706045 C205.699653,9.3063825 205.672986,9.3414055 205.646243,9.3756865 L205.646243,9.3406045 C205.652589,9.3247385 205.658765,9.3090135 205.66477,9.2934285 L205.696243,9.3006045 C206.296243,7.8506045 205.426243,7.5806045 204.296243,7.7006045 C201.186243,8.0006045 198.086243,8.3606045 194.986243,8.7006045 C194.955552,8.7082775 194.901312,8.7689345 194.877729,8.8328875 C194.857692,8.8645835 194.835486,8.8998155 194.816243,8.9306045 L197.876243,9.7806045 L197.747362,10.3237455 L188.716243,8.7306045 L188.750708,8.7855045 L188.666243,8.7706045 L189.786207,10.5546185 L186.396243,11.9106045 L186.405034,11.9270885 L186.346243,11.9506045 L186.887633,12.9657095 C185.315585,13.0817765 183.916056,13.1230385 182.526243,13.2906045 C178.806243,13.7406045 174.996243,13.9006045 171.396243,14.8306045 C166.306243,16.1406045 161.366243,17.8206045 156.056243,16.0906045 C155.465978,16.0052675 154.866508,16.0052675 154.276243,16.0906045 L154.276243,15.0506145 C157.049694,15.0516735 159.83285,15.1400665 162.596243,15.0506045 C165.376243,14.9606045 168.346243,14.6206045 171.216243,14.3906045 L171.212673,14.3549065 C171.23053,14.3534695 171.248386,14.3520355 171.266243,14.3506045 L171.186243,13.5506045 L161.246243,14.2806045 L161.246243,12.2206045 C161.229262,12.2395085 161.212599,12.2583195 161.196243,12.2770245 L161.196243,12.2606045 C160.841369,12.6711455 160.626907,13.0332685 160.438309,13.2189465 C160.372441,13.2777495 160.310327,13.3106045 160.246243,13.3106045 C158.826243,13.3106045 157.296243,13.3106045 155.826243,13.3106045 L155.826243,12.7216385 L157.226243,12.4706045 C157.214911,12.4622315 157.203536,12.4539255 157.19212,12.4456885 L157.276243,12.4306045 C156.641802,11.9618145 155.87507,11.7062375 155.086243,11.7006045 C153.986243,11.7306045 152.866243,12.1406045 151.786243,12.0606045 C149.316243,11.8706045 146.856243,11.2306045 144.396243,11.2906045 C143.928212,11.2983405 143.473647,11.5215235 143.017501,11.8085295 C142.774371,11.9592485 142.530948,12.1304325 142.284952,12.2985795 C141.798532,12.6269765 141.301479,12.9365995 140.776243,13.0506045 C137.426243,13.7906045 134.006243,14.2406045 130.266243,14.8606045 L130.412696,14.8681425 C130.347311,14.8789125 130.281826,14.8897325 130.216243,14.9006045 L134.193455,15.1053135 C132.547959,15.4707685 130.855181,15.5772445 129.176243,15.4206045 C127.916243,15.2906045 126.716243,14.5206045 125.466243,14.4706045 C122.846243,14.3606045 120.206243,14.5306045 117.586243,14.6206045 C116.756243,14.6506045 115.936243,14.7706045 114.936243,14.8606045 L115.506243,13.4306045 C113.336243,13.6606045 111.046243,13.3906045 109.276243,14.2206045 C107.006243,15.2806045 104.826243,14.9306045 102.576243,15.0906045 C101.806243,15.1406045 101.086243,15.9606045 100.346243,16.4306045 C99.446243,16.6906045 98.366243,16.3006045 97.286243,16.3006045 C96.156708,16.4246985 95.034968,16.6116555 93.926243,16.8606045 C92.456131,17.1045305 90.965792,17.2050025 89.476243,17.1606045 C88.140236,16.9026245 86.833633,16.5106435 85.576243,15.9906045 C85.583719,16.0139795 85.59103,16.0371755 85.598179,16.0601945 C85.574182,16.0503775 85.550204,16.0405145 85.526243,16.0306045 C86.000926,17.5148235 85.814075,18.2659915 85.201773,18.6098425 C84.90401,18.7606275 84.514048,18.8206045 84.056243,18.8206045 C82.186243,18.8706045 80.306243,18.2006045 78.456243,18.9706045 C78.387793,18.9999405 78.242848,18.8380365 78.030757,18.6905975 L79.256243,18.1206045 L79.233151,18.1146005 L79.306243,18.0806045 L77.306243,17.5606045 L77.248288,16.9713905 L80.636243,15.7206045 L80.632366,15.7004945 L80.686243,15.6806045 L80.526243,14.8506045 L75.526243,15.4806045 L75.5284,15.5140325 L75.476243,15.5206045 L75.754974,19.8409355 L73.486243,20.7406045 L73.491167,20.7588245 L73.436243,20.7806045 L73.536243,21.1506045 L74.826243,21.1506045 L74.88471,21.5014045 L70.756243,22.8906045 C70.756243,22.3606045 70.596243,21.9406045 70.756243,21.7606045 C71.536243,20.8406045 72.416243,19.9806045 73.206243,19.0606045 C73.239878,19.0202425 73.065354,18.8033995 73.011431,18.7510085 L73.007258,18.7620525 C73.016714,18.7766665 73.032524,18.7989795 73.056243,18.8306045 L74.386243,15.3106045 L71.586243,15.5806045 L71.607771,15.6098505 L71.496243,15.6206045 L72.520715,17.0509985 L68.516243,18.0206045 L68.574802,18.0646335 L68.426243,18.1006045 L69.627837,19.0040585 L57.306243,18.0706045 L57.306243,17.7365045 L60.216243,17.2806045 L60.144263,17.2259815 L60.306243,17.2006045 L57.396243,15.1406045 L58.696243,11.4406045 L52.612343,11.4406045 L55.196243,9.4606045 C54.886243,9.0806045 54.656243,8.5806045 54.266243,8.3606045 C50.646243,6.3606045 46.986243,4.3606045 43.386243,2.3606045 C43.227638,2.2715005 43.069826,2.1894625 42.91225,2.1146035 C41.25186,1.3128015 39.697452,1.3054835 37.516243,2.1706045 L37.587848,2.1781155 C37.577326,2.1822575 37.566792,2.1864205 37.556243,2.1906045 L40.377773,2.4865695 L40.696243,5.8106045 L39.196243,6.4806045 C39.496243,6.8506045 39.736243,7.0906045 40.086243,7.5906045 C40.436243,8.0906045 40.986243,8.7506045 40.976243,9.0906045 C40.966243,9.4306045 40.136243,9.7406045 39.586243,10.1406045 L39.631325,10.1569215 L42.236243,11.1406045 L40.262723,13.7061805 C37.727481,10.5163805 39.064533,5.9495695 35.366243,3.7106045 L35.409523,3.7850875 C35.385319,3.7701555 35.360893,3.7553275 35.336243,3.7406045 L36.542025,5.8531355 L34.356243,4.3706045 L34.330274,4.4004685 L34.286243,4.3706045 L34.086243,4.6006045 L37.576243,8.4006045 C36.945813,8.6892355 36.469229,8.7849175 36.10121,8.7488365 C35.079389,8.5983895 34.936861,7.3714075 34.586243,6.5606045 L34.520754,6.5710825 C34.519254,6.5675825 34.51775,6.5640895 34.516243,6.5606045 L31.516243,7.0406045 L37.138344,10.6999015 L36.266243,12.3606045 L31.466243,8.8606045 L31.096243,9.3906045 L31.18039,9.4643945 L31.106243,9.5706045 L32.83132,11.0833645 L31.176243,10.9506045 L31.116243,11.2506045 L31.178743,11.2781045 L31.146243,11.4406045 L36.102923,13.6215435 L36.056243,14.2206045 L32.176243,14.5506045 L32.076243,13.9106045 L31.136243,15.5806045 L27.386243,15.4006045 L27.386243,16.2406045 L27.416243,16.2421495 L27.416243,16.4306045 L32.466243,16.6906045 L32.466243,16.0706045 C33.300442,16.3278215 34.176866,16.4195405 35.046243,16.3406045 C37.626243,15.5306045 40.046243,14.3906045 42.676243,13.5806045 C44.836243,12.9106045 47.096243,12.5806045 49.276243,11.9906045 C49.920418,11.6965405 50.519702,11.3127295 51.056243,10.8506045 L53.25831,13.1646405 L45.136243,14.6906045 L45.633801,14.7927605 L45.166243,14.8806045 L49.223385,15.7135925 L49.166243,15.9006045 L46.616243,16.0906045 C45.756243,16.8706045 45.176243,17.7906045 44.396243,18.0106045 C42.885123,18.3482545 41.350828,18.5722145 39.806243,18.6806045 L39.626243,20.6306045 C39.641199,20.6389425 39.6563,20.6470285 39.671541,20.6548725 L39.656243,20.8206045 L38.266243,20.8206045 C38.232888,20.8307775 38.199321,20.8406395 38.16556,20.8502125 L38.286243,20.6406045 C36.454855,21.2105775 33.890089,20.8027125 33.659277,23.3490685 C33.627497,23.5762975 33.615651,23.8290385 33.626243,24.1106045 L36.722512,24.1106045 L34.636243,25.2706045 L34.753507,25.3742835 L34.616243,25.4506045 L36.195583,26.8469725 L35.976243,27.1906045 L31.216243,24.8506045 L31.236208,25.0502505 L31.196243,25.0306045 L31.396243,27.0306045 L32.906243,26.8006045 L32.975978,27.4204735 C30.843874,27.4143625 28.71336,27.5379665 26.596243,27.7906045 C25.106243,28.0306045 22.596243,28.8206045 22.596243,29.4706045 C22.593909,29.5126215 22.591119,29.5542275 22.587883,29.5954295 C22.582303,29.6138715 22.5784,29.6322675 22.576243,29.6506045 C22.572413,29.7195535 22.567356,29.7873935 22.561114,29.8541625 C22.249363,32.2695345 20.344476,33.2457895 18.946243,34.7106045 L18.946243,34.6606045 L19.153462,34.6606045 C19.076498,34.7360815 19.000653,34.8126515 18.926243,34.8906045 L16.186243,34.8906045 L16.956243,33.4006045 L11.666243,35.9406045 C14.076243,38.2406045 14.466243,38.2606045 16.056243,36.2506045 C16.431707,36.6260685 16.755011,37.1326385 17.122489,37.5453585 C17.70134,38.1225175 18.409549,38.4036355 19.596243,37.6106045 L19.596243,37.8988345 C19.651817,37.8652585 19.708471,37.8292115 19.766243,37.7906045 L19.766243,39.3906045 L19.846243,39.3206045 C19.776132,39.3031885 19.70602,39.2851335 19.635909,39.2665335 L21.596243,42.0306045 C19.256243,42.4106045 16.996243,43.7306045 14.456243,42.0306045 L18.946243,41.6006045 L18.946243,41.0206045 L12.576243,40.1406045 L12.636243,39.5406045 C13.482173,39.7134375 14.342864,39.8038605 15.206243,39.8106045 C16.586798,39.6986675 17.993457,39.4214055 19.385637,39.1979685 C17.969173,38.7985285 16.552708,38.2206045 15.136243,38.2206045 C13.326243,38.2206045 11.036243,37.5806045 10.036243,40.1506045 C9.916243,40.4706045 9.246243,40.6406045 8.806243,40.7806045 C8.596243,40.8506045 8.136243,40.5706045 8.086243,40.6506045 C7.406243,41.6506045 6.786243,42.6506045 6.086243,43.6506045 L3.636243,42.4106045 C4.065684,42.8941765 4.456056,43.4480735 4.885843,43.9209645 C5.6122,44.6640055 6.471811,45.1365095 7.816243,44.6606045 C8.561296,44.2557905 9.358895,43.9562705 10.186243,43.7706045 C13.796243,43.7206045 17.416243,43.7706045 21.026243,43.7706045 L21.026243,43.9405465 C21.079578,43.9405845 21.132912,43.9406045 21.186243,43.9406045 L21.186243,44.7606045 C18.566243,44.8706045 15.936243,45.0106045 13.306243,45.0906045 C10.366243,45.1806045 7.426243,45.2106045 4.486243,45.3006045 C4.227866,45.3231735 3.984705,45.4324195 3.796243,45.6106045 C2.976143,46.3245745 2.183969,47.0664705 0.880838,48.2584185 L9.356243,49.3106045 L9.45712,48.5402705 L3.816243,48.0606045 C3.850029,48.0398555 3.883895,48.0192545 3.91784,47.9988015 L3.586243,47.9706045 C5.369669,46.8753605 7.37511,46.1920765 9.456243,45.9706045 C10.725562,45.8963355 12.222809,45.5029695 13.433991,46.0400875 C14.110616,46.2715395 14.71221,46.7548315 15.156243,47.6906045 C15.156243,47.7055205 15.162835,47.7182385 15.174152,47.7292145 C15.199091,47.7306045 15.220822,47.7306045 15.236243,47.7306045 L15.726243,46.3406045 L16.376243,46.3406045 C16.383451,46.3705815 16.390553,46.4005815 16.397549,46.4306045 L16.606243,46.4306045 C16.801098,47.2409525 16.918294,48.0680235 16.956243,48.9006045 C16.906531,50.9201615 17.362663,52.0902095 18.507001,52.5979075 C19.179179,52.8283815 20.059098,52.8658605 21.176243,52.7406045 C22.751762,52.6555455 24.330724,52.6555455 25.906243,52.7406045 L25.906243,52.8187925 C25.982917,52.8225285 26.059584,52.8264655 26.136243,52.8306045 L26.136243,53.6306045 C21.276243,54.1906045 16.346243,52.6306045 11.506243,53.6306045 L11.506243,54.2770735 L27.336243,55.4106045 L27.336243,55.4841355 L27.566243,55.5006045 L27.566243,56.2606045 L18.456243,55.7906045 L18.456243,56.1661265 L15.03,60.11 Z" id="形状结合-path备份" fill="#F1F1F1" fill-rule="nonzero"></path>
    </g>
</svg>